<?xml version="1.0" encoding="UTF-8"?>
<svg width="138px" height="30px" viewBox="0 0 138 30" version="1.1" xmlns="http://www.w3.org/2000/svg" xmlns:xlink="http://www.w3.org/1999/xlink">
    <!-- Generator: Sketch 43.1 (39012) - http://www.bohemiancoding.com/sketch -->
    <title>1</title>
    <desc>Created with Sketch.</desc>
    <defs></defs>
    <g id="Page-1" stroke="none" stroke-width="1" fill="none" fill-rule="evenodd">
        <g id="1">
            <path d="M18.422,20.479 L10.409,20.479 L13.524,14.666 C13.69,14.375 13.919,14.23 14.209,14.23 L14.583,14.23 C14.873,14.23 15.101,14.375 15.267,14.666 L18.422,20.479" id="Fill-3" fill="#149F93">
            <animate attributeName="fill" values="#149F93;black;#149F93" dur="5s" repeatCount="indefinite" />
            </path>
            <path d="M15.107,1.875 C15.879,1.875 16.529,2.033 17.058,2.348 C17.586,2.663 18.104,3.278 18.612,4.192 L28.702,22.513 C28.804,22.716 28.829,22.883 28.778,23.016 C28.727,23.147 28.58,23.214 28.336,23.214 L24.465,23.214 C24.119,23.214 23.886,23.081 23.764,22.817 C20.641,17.144 17.991,12.237 14.833,6.417 C14.751,6.275 14.639,6.204 14.497,6.204 L14.314,6.204 C14.172,6.204 14.06,6.275 13.979,6.417 C10.992,11.993 8.129,17.284 5.169,22.817 C5.027,23.081 4.794,23.214 4.468,23.214 L0.506,23.214 C0.242,23.214 0.084,23.147 0.033,23.016 C-0.018,22.883 0.008,22.716 0.109,22.513 L10.108,4.192 C10.616,3.278 11.114,2.663 11.601,2.348 C12.089,2.033 12.658,1.875 13.309,1.875 L15.107,1.875" id="Fill-4" fill="#FFFFFF"></path>
            <path d="M45.772,6.479 C47.154,6.479 48.308,6.595 49.232,6.829 C50.157,7.063 50.904,7.423 51.473,7.911 C52.042,8.399 52.443,9.034 52.677,9.816 C52.911,10.599 53.027,11.539 53.027,12.636 L53.027,23.731 C53.027,24.85 52.911,25.8 52.677,26.582 C52.443,27.364 52.042,28.004 51.473,28.502 C50.904,29 50.157,29.366 49.232,29.6 C48.308,29.833 47.154,29.95 45.772,29.95 L31.415,29.95 C31.049,29.95 30.866,29.768 30.866,29.401 L30.866,26.841 C30.866,26.475 31.049,26.292 31.415,26.292 L45.346,26.292 C46.016,26.292 46.565,26.236 46.992,26.125 C47.419,26.013 47.759,25.83 48.013,25.576 C48.267,25.322 48.445,24.977 48.546,24.539 C48.648,24.103 48.699,23.559 48.699,22.908 L48.699,22.116 L37.237,22.116 C35.855,22.116 34.702,21.999 33.777,21.766 C32.853,21.531 32.111,21.166 31.552,20.668 C30.994,20.17 30.592,19.53 30.348,18.748 C30.104,17.966 29.982,17.016 29.982,15.897 L29.982,12.697 C29.982,11.579 30.104,10.629 30.348,9.847 C30.592,9.064 30.994,8.424 31.552,7.926 C32.111,7.429 32.853,7.063 33.777,6.829 C34.702,6.595 35.855,6.479 37.237,6.479 L45.772,6.479 Z M34.341,15.867 C34.341,16.396 34.393,16.837 34.494,17.193 C34.596,17.549 34.773,17.843 35.027,18.077 C35.281,18.311 35.622,18.479 36.049,18.58 C36.475,18.682 37.014,18.732 37.664,18.732 L48.699,18.732 L48.699,13.032 C48.699,11.956 48.47,11.193 48.013,10.746 C47.556,10.299 46.667,10.076 45.346,10.076 L37.664,10.076 C37.014,10.076 36.475,10.126 36.049,10.228 C35.622,10.33 35.281,10.497 35.027,10.731 C34.773,10.964 34.596,11.264 34.494,11.63 C34.393,11.996 34.341,12.433 34.341,12.941 L34.341,15.867 L34.341,15.867 Z" id="Fill-5" fill="#FFFFFF"></path>
            <path d="M72.323,6.479 C73.359,6.479 74.218,6.565 74.898,6.737 C75.579,6.91 76.118,7.195 76.514,7.591 C76.91,7.987 77.189,8.505 77.353,9.146 C77.515,9.786 77.597,10.563 77.597,11.478 L77.597,14.374 C77.597,15.023 77.454,15.476 77.17,15.73 C76.885,15.984 76.448,16.111 75.859,16.111 L60.465,16.111 L60.465,16.843 C60.465,17.798 60.693,18.488 61.151,18.915 C61.608,19.342 62.498,19.556 63.818,19.556 L76.529,19.556 C76.896,19.556 77.078,19.738 77.078,20.104 L77.078,22.665 C77.078,23.03 76.896,23.214 76.529,23.214 L63.391,23.214 C62.01,23.214 60.856,23.102 59.932,22.878 C59.007,22.655 58.266,22.294 57.707,21.796 C57.147,21.298 56.746,20.658 56.502,19.876 C56.258,19.094 56.136,18.153 56.136,17.056 L56.136,12.666 C56.136,11.569 56.258,10.629 56.502,9.847 C56.746,9.064 57.147,8.424 57.707,7.926 C58.266,7.429 59.007,7.063 59.932,6.829 C60.856,6.595 62.01,6.479 63.391,6.479 L72.323,6.479 Z M60.465,13.398 L72.811,13.398 C73.156,13.398 73.329,13.225 73.329,12.88 L73.329,11.6 C73.329,10.97 73.197,10.522 72.933,10.259 C72.668,9.995 72.181,9.862 71.47,9.862 L63.818,9.862 C62.498,9.862 61.608,10.07 61.151,10.487 C60.693,10.904 60.465,11.6 60.465,12.575 L60.465,13.398 L60.465,13.398 Z" id="Fill-6" fill="#FFFFFF"></path>
            <path d="M96.77,6.479 C98.131,6.479 99.279,6.595 100.215,6.829 C101.149,7.063 101.896,7.429 102.455,7.926 C103.014,8.424 103.415,9.064 103.659,9.847 C103.902,10.629 104.024,11.569 104.024,12.666 L104.024,22.543 C104.024,22.99 103.801,23.214 103.354,23.214 L100.367,23.214 C99.92,23.214 99.696,22.99 99.696,22.543 L99.696,13.703 C99.696,13.073 99.655,12.539 99.574,12.103 C99.493,11.666 99.335,11.32 99.102,11.066 C98.868,10.812 98.548,10.629 98.142,10.518 C97.735,10.406 97.207,10.35 96.557,10.35 L88.448,10.35 C87.798,10.35 87.26,10.406 86.833,10.518 C86.405,10.629 86.065,10.812 85.812,11.066 C85.558,11.32 85.379,11.666 85.278,12.103 C85.177,12.539 85.125,13.073 85.125,13.703 L85.125,22.543 C85.125,22.99 84.902,23.214 84.455,23.214 L81.467,23.214 C81,23.214 80.767,22.99 80.767,22.543 L80.767,12.666 C80.767,11.569 80.889,10.629 81.132,9.847 C81.376,9.064 81.777,8.424 82.336,7.926 C82.896,7.429 83.637,7.063 84.562,6.829 C85.486,6.595 86.64,6.479 88.021,6.479 L96.77,6.479" id="Fill-7" fill="#FFFFFF"></path>
            <path d="M111.493,0.291 C111.94,0.291 112.164,0.514 112.164,0.961 L112.164,3.857 C112.164,4.325 111.94,4.558 111.493,4.558 L108.506,4.558 C108.038,4.558 107.805,4.325 107.805,3.857 L107.805,0.961 C107.805,0.514 108.038,0.291 108.506,0.291 L111.493,0.291" id="Fill-8" fill="#FFFFFF"></path>
            <path d="M111.493,6.479 C111.94,6.479 112.164,6.712 112.164,7.18 L112.164,22.543 C112.164,22.99 111.94,23.214 111.493,23.214 L108.506,23.214 C108.059,23.214 107.835,22.99 107.835,22.543 L107.835,7.18 C107.835,6.712 108.059,6.479 108.506,6.479 L111.493,6.479" id="Fill-9" fill="#FFFFFF"></path>
            <path d="M119.662,6.479 C119.886,6.479 120.059,6.509 120.181,6.57 C120.302,6.631 120.424,6.722 120.547,6.844 L126.552,12.331 L132.709,6.844 C132.811,6.722 132.922,6.631 133.044,6.57 C133.166,6.509 133.339,6.479 133.563,6.479 L137.007,6.479 C137.291,6.479 137.459,6.575 137.51,6.768 C137.561,6.961 137.505,7.139 137.342,7.301 L129.203,14.77 L137.586,22.421 C137.729,22.583 137.779,22.756 137.738,22.939 C137.698,23.122 137.535,23.214 137.251,23.214 L133.38,23.214 C133.156,23.214 132.979,23.183 132.846,23.122 C132.714,23.062 132.597,22.979 132.495,22.878 L126.033,16.965 L119.388,22.878 C119.286,22.979 119.175,23.062 119.053,23.122 C118.931,23.183 118.758,23.214 118.534,23.214 L115.09,23.214 C114.806,23.214 114.638,23.122 114.587,22.939 C114.536,22.756 114.592,22.583 114.755,22.421 L123.351,14.526 L115.486,7.301 C115.323,7.139 115.263,6.961 115.304,6.768 C115.344,6.575 115.506,6.479 115.791,6.479 L119.662,6.479" id="Fill-10" fill="#FFFFFF"></path>
        </g>
    </g>
</svg>

