<?xml version="1.0" encoding="UTF-8"?>
<svg width="34px" height="19px" viewBox="0 0 34 19" version="1.1" xmlns="http://www.w3.org/2000/svg" xmlns:xlink="http://www.w3.org/1999/xlink">
    <!-- Generator: Sketch 43.1 (39012) - http://www.bohemiancoding.com/sketch -->
    <title>Group 4</title>
    <desc>Created with Sketch.</desc>
    <defs></defs>
    <g id="Page-1" stroke="none" stroke-width="1" fill="none" fill-rule="evenodd">
        <g id="Desktop" transform="translate(-656.000000, -834.000000)" fill-rule="nonzero" fill="#9B9B9B">
            <g id="Group-4" transform="translate(656.000000, 834.000000)">
                <g id="Group">
                    <path d="M24.2319121,11.0812222 C24.2319121,10.9845333 24.2322857,10.8865778 24.233033,10.7898889 C24.3716484,9.10648889 25.7742418,8.32706667 27.3483297,8.31693333 L27.3483297,0.203933333 L10.4219341,0.203933333 L10.4219341,8.87806667 L11.823033,8.87848889 C13.495011,8.87848889 14.9831648,9.74193333 14.9831648,11.6305333 C14.9831648,12.6578 14.4813846,13.5508 13.7404835,14.0182 L25.5784615,14.0182 C24.7643297,13.3662889 24.2319121,12.2942667 24.2319121,11.0812222 Z" id="Shape"></path>
                    <path d="M10.1645055,1.33042222 L7.90593407,1.33 L7.90593407,1.95235556 L3.91523077,1.95235556 C3.91523077,1.95235556 0.521582418,1.93757778 0.507010989,1.93757778 C0.328417582,1.93757778 0.184197802,2.10055556 0.184197802,2.30195556 C0.184197802,2.37711111 0.204373626,2.4472 0.239120879,2.50546667 C0.239120879,2.50546667 1.83973626,7.82082222 10.1637582,7.96902222 L10.1637582,1.33042222 L10.1645055,1.33042222 Z" id="Shape"></path>
                    <polygon id="Shape" points="28.6212747 0.19 27.6057582 0.19 27.6057582 8.31651111 28.3137802 8.31651111 31.5576044 5.18193333 33.6779341 5.18193333 33.6779341 2.68575556"></polygon>
                    <path d="M26.5360659,14.3095333 L12.993978,14.3095333 L10.4200659,16.2673778 C10.1727253,16.5946 10.1943956,16.8610222 10.1943956,16.8610222 L10.1943956,18.8822 L14.0883297,18.8822 L14.6876264,18.1682222 L24.8416703,18.1682222 L25.440967,18.8822 L29.3356484,18.8822 L29.3356484,16.8610222 C29.3356484,16.8610222 29.3573187,16.5946 29.1096044,16.2673778 L26.5360659,14.3095333 Z" id="Shape"></path>
                </g>
            </g>
        </g>
    </g>
</svg>