<?xml version="1.0" encoding="UTF-8"?>
<svg width="28px" height="28px" viewBox="0 0 28 28" version="1.1" xmlns="http://www.w3.org/2000/svg" xmlns:xlink="http://www.w3.org/1999/xlink">
    <!-- Generator: Sketch 43.1 (39012) - http://www.bohemiancoding.com/sketch -->
    <title>Group 5</title>
    <desc>Created with Sketch.</desc>
    <defs></defs>
    <g id="Page-1" stroke="none" stroke-width="1" fill="none" fill-rule="evenodd">
        <g id="Desktop" transform="translate(-670.000000, -788.000000)">
            <g id="Group-5" transform="translate(670.000000, 788.000000)">
                <g id="Group-3" fill="#9B9B9B">
                    <path d="M0.0222140828,12.9617834 L0,12.9617834 L0,27.5 L14.5382166,27.5 L14.5382166,27.4777859 C21.765365,27.0693342 27.5,21.079365 27.5,13.75 C27.5,6.15608469 21.3439153,0 13.75,0 C6.42063503,0 0.430665835,5.73463503 0.0222140828,12.9617834 Z" id="Combined-Shape"></path>
                </g>
                <path d="M2.84819627,13.3378606 L2.83088235,13.3378606 L2.83088235,24.6691176 L14.1621394,24.6691176 L14.1621394,24.6518037 C19.7950639,24.3334516 24.2647059,19.6647992 24.2647059,13.9522059 C24.2647059,8.03341895 19.4665811,3.23529412 13.5477941,3.23529412 C7.83520083,3.23529412 3.16654837,7.70493613 2.84819627,13.3378606 Z" id="Combined-Shape" fill="#0E0E0E"></path>
            </g>
        </g>
    </g>
</svg>