<?xml version="1.0" encoding="UTF-8"?>
<svg width="512px" height="512px" viewBox="0 0 512 512" version="1.1" xmlns="http://www.w3.org/2000/svg" xmlns:xlink="http://www.w3.org/1999/xlink">
    <!-- Generator: Sketch 43.1 (39012) - http://www.bohemiancoding.com/sketch -->
    <title>Group</title>
    <desc>Created with Sketch.</desc>
    <defs></defs>
    <g id="Page-1" stroke="none" stroke-width="1" fill="none" fill-rule="evenodd">
        <g id="Desktop-HD-Copy" transform="translate(-33.000000, -35.000000)">
            <g id="Group" transform="translate(33.000000, 35.000000)">
                <rect id="Rectangle-2" stroke-opacity="0.01" stroke="#FFFFFF" x="0.5" y="0.5" width="511" height="511"></rect>
                <g id="1" transform="translate(31.030303, 77.575758)">
                    <path d="M285.820121,302.219636 L161.497212,302.219636 L209.826909,212.030061 C212.402424,207.515152 215.955394,205.265455 220.454788,205.265455 L226.257455,205.265455 C230.756848,205.265455 234.294303,207.515152 236.869818,212.030061 L285.820121,302.219636" id="Fill-3" fill="#149F93"></path>
                    <path d="M234.387394,13.5757576 C246.365091,13.5757576 256.449939,16.0271515 264.657455,20.9144242 C272.849455,25.801697 280.886303,35.3435152 288.768,49.5243636 L445.315879,333.777455 C446.898424,336.92703 447.286303,339.518061 446.49503,341.581576 C445.703758,343.614061 443.42303,344.653576 439.637333,344.653576 L379.578182,344.653576 C374.209939,344.653576 370.594909,342.590061 368.702061,338.494061 C320.248242,250.476606 279.133091,174.343758 230.136242,84.0455758 C228.864,81.8424242 227.126303,80.7408485 224.923152,80.7408485 L222.083879,80.7408485 C219.880727,80.7408485 218.14303,81.8424242 216.886303,84.0455758 C170.542545,170.558061 126.122667,252.648727 80.1978182,338.494061 C77.9946667,342.590061 74.3796364,344.653576 69.321697,344.653576 L7.85066667,344.653576 C3.75466667,344.653576 1.30327273,343.614061 0.512,341.581576 C-0.279272727,339.518061 0.124121212,336.92703 1.69115152,333.777455 L156.827152,49.5243636 C164.708848,35.3435152 172.435394,25.801697 179.991273,20.9144242 C187.562667,16.0271515 196.390788,13.5757576 206.491152,13.5757576 L234.387394,13.5757576" id="Fill-4" fill="#333433"></path>
                </g>
            </g>
        </g>
    </g>
</svg>