<?xml version="1.0" encoding="UTF-8"?>
<svg width="512px" height="512px" viewBox="0 0 512 512" version="1.1" xmlns="http://www.w3.org/2000/svg" xmlns:xlink="http://www.w3.org/1999/xlink">
    <!-- Generator: Sketch 43.1 (39012) - http://www.bohemiancoding.com/sketch -->
    <title>Group 2</title>
    <desc>Created with Sketch.</desc>
    <defs>
        <rect id="path-1" x="0" y="0" width="512" height="512" rx="31"></rect>
        <filter x="-6.2%" y="-6.2%" width="112.5%" height="112.5%" filterUnits="objectBoundingBox" id="filter-2">
            <feGaussianBlur stdDeviation="22" in="SourceAlpha" result="shadowBlurInner1"></feGaussianBlur>
            <feOffset dx="0" dy="20" in="shadowBlurInner1" result="shadowOffsetInner1"></feOffset>
            <feComposite in="shadowOffsetInner1" in2="SourceAlpha" operator="arithmetic" k2="-1" k3="1" result="shadowInnerInner1"></feComposite>
            <feColorMatrix values="0 0 0 0 0   0 0 0 0 0   0 0 0 0 0  0 0 0 1 0" type="matrix" in="shadowInnerInner1"></feColorMatrix>
        </filter>
        <path d="M243.496757,246.392883 L137.583202,246.392883 L178.756386,169.558302 C180.950527,165.711946 183.977384,163.795378 187.810521,163.795378 L192.753947,163.795378 C196.587084,163.795378 199.600724,165.711946 201.794864,169.558302 L243.496757,246.392883" id="path-3"></path>
        <filter x="-28.8%" y="-24.8%" width="157.6%" height="173.9%" filterUnits="objectBoundingBox" id="filter-4">
            <feOffset dx="0" dy="10" in="SourceAlpha" result="shadowOffsetOuter1"></feOffset>
            <feGaussianBlur stdDeviation="8.5" in="shadowOffsetOuter1" result="shadowBlurOuter1"></feGaussianBlur>
            <feColorMatrix values="0 0 0 0 0   0 0 0 0 0   0 0 0 0 0.0980392157  0 0 0 1 0" type="matrix" in="shadowBlurOuter1"></feColorMatrix>
        </filter>
        <path d="M243.913555,245.597505 L138,245.597505 L179.173184,168.762924 C181.367325,164.916569 184.394182,163 188.227319,163 L193.170745,163 C197.003883,163 200.017522,164.916569 202.211662,168.762924 L243.913555,245.597505" id="path-5"></path>
        <filter x="-69.9%" y="-77.5%" width="239.7%" height="279.2%" filterUnits="objectBoundingBox" id="filter-6">
            <feOffset dx="0" dy="10" in="SourceAlpha" result="shadowOffsetOuter1"></feOffset>
            <feGaussianBlur stdDeviation="23" in="shadowOffsetOuter1" result="shadowBlurOuter1"></feGaussianBlur>
            <feColorMatrix values="0 0 0 0 0.0784313725   0 0 0 0 0.623529412   0 0 0 0 0.57254902  0 0 0 0.375226449 0" type="matrix" in="shadowBlurOuter1"></feColorMatrix>
        </filter>
        <path d="M225.467793,6.74248065 C232.446747,10.9060611 239.293524,19.0349562 246.008123,31.1159483 L379.374874,273.277716 C380.723081,275.960912 381.053524,278.168271 380.37942,279.926227 C379.705317,281.657748 377.762312,282.543335 374.53719,282.543335 L323.371413,282.543335 C318.798083,282.543335 315.718355,280.785379 314.105794,277.295902 C272.826868,202.311801 237.799922,137.45247 196.058376,60.5253655 C194.974523,58.6484499 193.494139,57.7099921 191.617223,57.7099921 L189.198381,57.7099921 C187.321466,57.7099921 185.841082,58.6484499 184.770447,60.5253655 C145.28913,134.227348 107.44681,204.162281 68.322372,277.295902 C66.4454564,280.785379 63.3657287,282.543335 59.0567534,282.543335 L6.6881641,282.543335 C3.19868718,282.543335 1.11028811,281.657748 0.436184615,279.926227 C-0.237918881,278.168271 0.105741725,275.960912 1.440731,273.277716 L133.604669,31.1159483 C140.319269,19.0349562 146.901691,10.9060611 153.338719,6.74248065 C159.788964,2.57890023 167.309844,0.490501166 175.914577,0.490501166 L199.68003,0.490501166 C209.884106,0.490501166 218.475621,2.57890023 225.467793,6.74248065 Z" id="path-7"></path>
        <filter x="-8.4%" y="-8.9%" width="116.8%" height="122.7%" filterUnits="objectBoundingBox" id="filter-8">
            <feOffset dx="0" dy="7" in="SourceAlpha" result="shadowOffsetOuter1"></feOffset>
            <feGaussianBlur stdDeviation="9.5" in="shadowOffsetOuter1" result="shadowBlurOuter1"></feGaussianBlur>
            <feColorMatrix values="0 0 0 0 0   0 0 0 0 0   0 0 0 0 0  0 0 0 1 0" type="matrix" in="shadowBlurOuter1"></feColorMatrix>
        </filter>
    </defs>
    <g id="Page-1" stroke="none" stroke-width="1" fill="none" fill-rule="evenodd">
        <g id="Desktop-HD-Copy" transform="translate(-25.000000, -41.000000)">
            <g id="Group-2" transform="translate(25.000000, 41.000000)">
                <g id="Rectangle-4">
                    <use fill="#292828" fill-rule="evenodd" xlink:href="#path-1"></use>
                    <use fill="black" fill-opacity="1" filter="url(#filter-2)" xlink:href="#path-1"></use>
                    <rect stroke="#000000" stroke-width="1" x="0.5" y="0.5" width="511" height="511" rx="31"></rect>
                </g>
                <g id="Group" transform="translate(38.400000, 38.400000)">
                    <rect id="Rectangle-2" stroke-opacity="0.01" stroke="#FFFFFF" x="0.5" y="0.5" width="435.184615" height="435.184615"></rect>
                    <g id="1" transform="translate(26.435431, 77.163578)">
                        <g id="Fill-3">
                            <use fill="black" fill-opacity="1" filter="url(#filter-4)" xlink:href="#path-3"></use>
                            <use fill="#000000" fill-rule="evenodd" xlink:href="#path-3"></use>
                        </g>
                        <g id="Fill-3">
                            <use fill="black" fill-opacity="1" filter="url(#filter-6)" xlink:href="#path-5"></use>
                            <use fill="#149F93" fill-rule="evenodd" xlink:href="#path-5"></use>
                        </g>
                        <g id="Fill-4">
                            <use fill="black" fill-opacity="1" filter="url(#filter-8)" xlink:href="#path-7"></use>
                            <use fill="#A7A7A7" fill-rule="evenodd" xlink:href="#path-7"></use>
                        </g>
                    </g>
                </g>
            </g>
        </g>
    </g>
</svg>