<?xml version="1.0" standalone="no"?>
<!DOCTYPE svg PUBLIC "-//W3C//DTD SVG 20010904//EN"
 "http://www.w3.org/TR/2001/REC-SVG-20010904/DTD/svg10.dtd">
<svg version="1.0" xmlns="http://www.w3.org/2000/svg"
 width="700.000000pt" height="700.000000pt" viewBox="0 0 700.000000 700.000000"
 preserveAspectRatio="xMidYMid meet">
<metadata>
Created by potrace 1.11, written by Peter Selinger 2001-2013
</metadata>
<g transform="translate(0.000000,700.000000) scale(0.100000,-0.100000)"
fill="#000000" stroke="none">
<path d="M3168 5748 c-215 -21 -358 -116 -506 -335 -61 -91 -29 -34 -322 -568
-15 -27 -110 -201 -210 -385 -100 -184 -195 -357 -210 -385 -15 -27 -69 -126
-120 -220 -51 -93 -105 -192 -120 -220 -15 -27 -67 -122 -115 -210 -48 -88
-106 -194 -128 -235 -53 -96 -84 -153 -125 -230 -19 -34 -42 -76 -51 -94 -10
-17 -141 -256 -291 -531 -150 -275 -282 -518 -295 -540 -263 -478 -275 -507
-225 -547 25 -20 -14 -19 572 -19 481 0 446 -9 527 136 18 33 51 94 73 135 22
41 52 98 67 125 14 28 52 98 83 157 64 119 253 471 303 563 18 33 99 184 180
335 81 151 166 309 188 350 62 115 103 191 129 240 25 47 74 139 186 345 36
66 79 147 97 180 38 70 322 600 373 695 34 64 75 141 134 250 43 79 58 91 113
95 36 2 52 -2 70 -19 19 -16 185 -305 185 -320 0 -2 16 -33 36 -68 36 -62 64
-114 141 -258 57 -106 102 -189 128 -235 12 -22 44 -80 70 -130 26 -49 51 -94
55 -100 4 -5 33 -59 65 -120 32 -60 66 -124 76 -142 10 -18 35 -63 55 -100 87
-162 140 -259 224 -413 35 -63 75 -137 90 -165 15 -27 96 -176 180 -330 84
-154 168 -309 188 -345 19 -36 54 -99 77 -140 23 -41 63 -115 90 -165 26 -49
51 -94 55 -100 4 -5 27 -46 50 -90 24 -44 52 -96 63 -115 11 -19 38 -69 60
-110 47 -88 62 -107 100 -127 44 -22 937 -22 971 1 29 18 37 54 21 98 -9 26
-198 376 -381 706 -57 101 -73 130 -101 182 -17 30 -65 118 -108 195 -42 77
-90 163 -105 190 -15 28 -138 250 -272 495 -135 245 -256 465 -270 490 -14 25
-65 117 -113 205 -114 208 -113 206 -245 445 -62 113 -125 228 -140 255 -25
46 -86 157 -163 295 -17 30 -40 73 -52 95 -12 22 -71 128 -130 235 -242 439
-354 546 -629 606 -77 17 -518 25 -648 12z"/>
<path d="M3403 3127 c-57 -11 -89 -47 -163 -185 -35 -64 -77 -144 -95 -177
-18 -33 -85 -159 -150 -280 -115 -216 -160 -300 -215 -400 -61 -113 -140 -264
-140 -269 0 -4 380 -6 845 -6 l845 0 -41 78 c-23 42 -52 95 -64 117 -12 22
-41 76 -65 120 -23 44 -66 123 -95 175 -29 52 -99 181 -155 285 -57 105 -116
215 -133 245 -16 30 -48 89 -70 130 -53 99 -82 137 -118 156 -34 17 -126 23
-186 11z"/>
</g>
</svg>
