<?xml version="1.0" encoding="UTF-8"?>
<svg width="33px" height="33px" viewBox="0 0 33 33" version="1.1" xmlns="http://www.w3.org/2000/svg" xmlns:xlink="http://www.w3.org/1999/xlink">
    <!-- Generator: Sketch 43.1 (39012) - http://www.bohemiancoding.com/sketch -->
    <title>Group 2</title>
    <desc>Created with Sketch.</desc>
    <defs></defs>
    <g id="Page-1" stroke="none" stroke-width="1" fill="none" fill-rule="evenodd">
        <g id="Desktop" transform="translate(-657.000000, -739.000000)" fill="#9B9B9B">
            <g id="Group-2" transform="translate(657.000000, 739.000000)">
                <g id="TokenOro-Logo-Reversed">
                    <path d="M13.3357009,25.3353645 L13.3357009,26.9943084 C13.3357009,27.3252336 13.0094019,27.5599346 12.6960561,27.4522991 C9.21656075,26.2550467 6.50408411,23.379729 5.47460748,19.6877383 C5.38856075,19.3793271 5.61956075,19.0733832 5.93969159,19.0733832 L7.56440187,19.0733832 C7.77134579,19.0733832 7.95485047,19.2063084 8.01961682,19.4030748 C8.85602804,21.9490093 10.7086542,23.9379533 13.0464112,24.9026636 C13.2215888,24.9748318 13.3357009,25.146 13.3357009,25.3353645" id="Fill-1"></path>
                    <path d="M27.4393458,19.6846542 C26.3867383,23.5940748 23.529,26.415729 19.8129533,27.5411215 C19.5023832,27.6348785 19.188729,27.4026449 19.188729,27.0785047 L19.188729,25.4399159 C19.188729,25.238215 19.3151776,25.0577944 19.5051589,24.9893271 C22.0569533,24.0711869 24.0289346,22.1578037 24.8937196,19.4098598 C24.9569439,19.2100093 25.1416822,19.0733832 25.3514019,19.0733832 L26.9736449,19.0733832 C27.2925421,19.0733832 27.5223084,19.3768598 27.4393458,19.6846542" id="Fill-2"></path>
                    <path d="M18.018,30.6634766 L18.018,20.876972 C18.2523925,20.8103551 18.386243,20.7375701 18.546,20.6505981 C18.6252617,20.6098879 18.721486,20.5627009 18.7970467,20.5164393 C19.0157103,20.3859813 19.2260467,20.2339346 19.4191121,20.0689346 C19.4447103,20.0485794 19.4746262,20.0245234 19.4974486,19.9989252 C19.6023084,19.9054766 19.706243,19.8070935 19.7993832,19.7022336 C19.866,19.6291402 19.9338505,19.5514206 19.9952243,19.4746262 C20.0297664,19.4348411 20.0624579,19.3941308 20.091757,19.3506449 C20.1303084,19.3006822 20.1676262,19.251028 20.1993925,19.1985981 C20.2058692,19.1933551 20.2111121,19.1871869 20.2151215,19.1779346 C20.2431869,19.1384579 20.272486,19.0977477 20.2980841,19.0539533 C20.3020935,19.047785 20.307028,19.0413084 20.3110374,19.0335981 C20.3366355,18.9901121 20.3659346,18.9429252 20.3915327,18.8966636 C20.5552991,18.6169346 20.6854486,18.3998131 20.7841402,18.0917103 C20.8134393,18.0035047 20.8365701,17.9029626 20.8606262,17.9029626 L30.5336355,17.9029626 C30.0093364,24.4585514 24.8079813,29.8989252 18.018,30.6634766 Z M17.6509907,17.8051963 C17.3481308,18.1157664 16.9249907,18.3088318 16.4568224,18.3088318 C15.989271,18.3088318 15.5645888,18.1157664 15.261729,17.8051963 C15.2426075,17.7860748 15.223486,17.7654112 15.2055981,17.7450561 C14.938514,17.4486729 14.7812243,17.0613084 14.7812243,16.6341589 C14.7812243,15.7086168 15.5315888,14.9585607 16.4568224,14.9585607 C17.3811308,14.9585607 18.129028,15.7086168 18.129028,16.6341589 C18.129028,17.0613084 17.9717383,17.4486729 17.7071215,17.7450561 C17.6892336,17.7654112 17.6701121,17.7860748 17.6509907,17.8051963 Z M14.9745981,30.6699533 C8.18492523,29.9245234 2.90060748,24.4585514 2.37661682,17.9029626 L12.0508598,17.9029626 C12.0687477,17.9029626 12.0854019,17.9550841 12.105757,18.0189252 C12.1236449,18.0762897 12.1402991,18.0954112 12.1606542,18.1527757 C12.1646636,18.1681963 12.1695981,18.1623364 12.1760748,18.1740561 C12.1964299,18.2301869 12.216785,18.2755234 12.2399159,18.3301121 C12.269215,18.4121495 12.303757,18.4833925 12.3410748,18.5611121 C12.3703738,18.6249533 12.4024486,18.6863271 12.4366822,18.7501682 C12.5159439,18.9074579 12.6093925,19.0573458 12.7077757,19.200757 C12.7105514,19.2056916 12.7142523,19.2118598 12.7191869,19.2143271 C12.7805607,19.3074673 12.8471776,19.3944393 12.9174953,19.4786355 C12.9813364,19.5606729 13.0479533,19.6383925 13.1207383,19.7139533 C13.1410935,19.7367757 13.1614486,19.7595981 13.1845794,19.7839626 C13.2524299,19.8530467 13.3187383,19.9208972 13.3878224,19.980729 C13.3918318,19.9872056 13.3942991,19.9896729 13.3967664,19.9896729 C13.481271,20.0689346 13.5694766,20.1417196 13.6589159,20.2108037 C13.9617757,20.4498224 14.3435888,20.6505981 14.7001121,20.8014112 C14.7769065,20.8362617 14.740514,20.8652523 14.9745981,20.8948598 L14.9745981,30.6699533 Z M16.4568224,2.59250467 C23.5450374,2.59250467 29.4137944,7.83518692 30.4235327,14.6248598 L20.4874486,14.6248598 C20.4171308,14.3907757 20.3403364,14.3130561 20.2573738,14.1813645 C20.074486,13.8939252 19.8598318,13.6570654 19.6208131,13.425757 C18.9586542,12.7793271 18.0957196,12.3145514 17.1359439,12.1634299 C16.9888318,12.1402991 16.8380187,12.1239533 16.685972,12.1165514 C16.6104112,12.1125421 16.5339252,12.1097664 16.4568224,12.1097664 C16.3803364,12.1097664 16.3035421,12.1119252 16.2267477,12.1156262 C16.0747009,12.1233364 15.9238879,12.1384486 15.7770841,12.1615794 C14.8157664,12.3127009 13.9528318,12.7753178 13.2894393,13.4217477 C13.0504206,13.6533645 12.8357664,13.8939252 12.6528785,14.1813645 C12.5696075,14.3142897 12.4931215,14.3907757 12.4228037,14.6248598 L2.48795327,14.6248598 C3.49645794,7.83518692 9.3664486,2.59250467 16.4568224,2.59250467 Z M16.4568224,0.291448598 C7.42962617,0.291448598 0.11164486,7.60850467 0.11164486,16.6341589 C0.11164486,25.6616636 7.42962617,32.9759439 16.4568224,32.9759439 C25.4818598,32.9759439 32.7986075,25.6616636 32.7986075,16.6341589 C32.7986075,7.60850467 25.4818598,0.291448598 16.4568224,0.291448598 L16.4568224,0.291448598 Z" id="Fill-3"></path>
                    <path d="M26.7340093,13.2200467 L25.0766075,13.2200467 C24.8847757,13.2200467 24.7108318,13.1065514 24.6340374,12.9304486 C23.2653084,9.80285047 20.1198224,7.56039252 16.4568224,7.56039252 C12.7910467,7.56039252 9.64556075,9.80285047 8.27683178,12.9304486 C8.20003738,13.1065514 8.02609346,13.2200467 7.83426168,13.2200467 L6.17685981,13.2200467 C5.84161682,13.2200467 5.60660748,12.8866542 5.72164486,12.5717664 C7.31335514,8.21915888 11.5191589,5.05054206 16.4568224,5.05054206 C21.3947944,5.05054206 25.5978224,8.21915888 27.1892243,12.5717664 C27.3042617,12.8866542 27.0692523,13.2200467 26.7340093,13.2200467" id="Fill-4"></path>
                </g>
            </g>
        </g>
    </g>
</svg>