<?xml version="1.0" encoding="UTF-8"?>
<svg width="32px" height="32px" viewBox="0 0 32 32" version="1.1" xmlns="http://www.w3.org/2000/svg" xmlns:xlink="http://www.w3.org/1999/xlink">
    <!-- Generator: Sketch 43.1 (39012) - http://www.bohemiancoding.com/sketch -->
    <title>Group</title>
    <desc>Created with Sketch.</desc>
    <defs></defs>
    <g id="Page-1" stroke="none" stroke-width="1" fill="none" fill-rule="evenodd">
        <g id="Group" fill-rule="nonzero" fill="#9B9B9B">
            <path d="M17.6148752,3.1455062 C17.5906286,3.30738249 17.6097521,3.38621186 17.6228759,3.84831024 C17.6444066,4.63891049 17.6515835,6.64970658 17.8238291,7.90600287 C17.8417713,8.02513442 17.8776558,8.27422765 18.0427245,8.35003863 C18.2365008,8.4402898 18.502046,8.24173723 18.5953457,8.16592624 L21.677824,5.32842944 C21.8346072,5.17676907 21.9698574,5.00949889 22.0825104,4.83126957 C23.2135885,5.53603836 24.2228763,6.41980134 25.0712962,7.44324594 C24.9210408,7.56136319 24.8981018,7.61692011 24.5844686,7.99625412 C24.0784972,8.60274198 22.7579478,10.1081315 22.0546116,11.1658752 C21.9864311,11.2669565 21.8536584,11.4763393 21.9254274,11.6424014 C22.0151387,11.840954 22.345276,11.8698344 22.4636949,11.8734444 L26.6406503,11.8120736 C26.89291,11.8014995 27.1374729,11.7558666 27.3682334,11.6795324 C27.7307961,12.8478179 27.9261659,14.0903556 27.9261659,15.378799 C27.9261659,15.545223 27.9229063,15.7108811 27.9164479,15.8757123 C27.8182301,15.8845758 27.6829453,15.901316 27.4444631,15.9239169 C26.6621811,15.9961178 24.6705915,16.1369096 23.4325764,16.3896129 C23.3141576,16.4148832 23.070143,16.4654239 23.0055509,16.6387061 C22.926605,16.8408688 23.141912,17.093572 23.2244463,17.1838232 L26.238744,20.093521 C26.4193444,20.2590014 26.6177751,20.3960637 26.8273617,20.5035172 C26.3746126,21.5055563 25.7931842,22.4362906 25.1043075,23.2743615 C25.0025899,23.2040484 24.8940759,23.1578082 24.5557609,22.9779478 C23.8631901,22.606113 22.122792,21.6169602 20.949369,21.144044 C20.838127,21.0971134 20.6048778,21.0068623 20.4577513,21.1151637 C20.2855058,21.2415153 20.3249787,21.5736396 20.342921,21.6891611 L21.2651525,25.7901743 C21.3099008,25.9670746 21.3714749,26.1362909 21.4478526,26.2959456 C20.3730294,26.8796034 19.2022081,27.3073067 17.9653406,27.5489232 C17.9241398,27.3743532 17.8793646,27.3190908 17.6802917,26.8840191 C17.3537427,26.1656198 16.5642838,24.3172758 15.9183629,23.2270416 C15.8573592,23.1223503 15.728175,22.9093575 15.5451641,22.9057475 C15.3262687,22.8949173 15.1612,23.180111 15.1037848,23.2884124 L13.3705636,27.1150621 C13.3106016,27.2565272 13.2635083,27.400992 13.2289702,27.546799 C12.0113579,27.3077981 10.8578763,26.8884319 9.79712705,26.3174742 C9.87833745,26.1515286 9.94347915,25.9750475 9.99024429,25.7901743 L10.9124759,21.6891611 C10.9304181,21.5736396 10.9734795,21.2415153 10.7976455,21.1151637 C10.650519,21.0068623 10.4172698,21.0971134 10.3060279,21.144044 C9.13260482,21.6169602 7.39220672,22.606113 6.69963593,22.9779478 C6.32640358,23.1763715 6.23285546,23.2121699 6.11956669,23.2970751 C5.42755491,22.459237 4.84317043,21.5282212 4.3877543,20.5254972 C4.61353514,20.4149827 4.82708592,20.2705052 5.0202411,20.093521 L8.03453883,17.1838232 C8.11348472,17.093572 8.3287917,16.8408688 8.25343426,16.6387061 C8.18884216,16.4654239 7.94482759,16.4148832 7.82640875,16.3896129 C6.58839361,16.1369096 4.59680404,15.9961178 3.81452201,15.9239169 C3.52928319,15.8968848 3.39167414,15.8782369 3.28854372,15.8714225 C3.28219637,15.708007 3.27899312,15.5437793 3.27899312,15.378799 C3.27899312,14.084662 3.4760934,12.8368373 3.84174186,11.6640488 C4.08573684,11.7497025 4.34586955,11.800803 4.61474641,11.8120736 L8.79170184,11.8734444 C8.91012068,11.8698344 9.24025805,11.840954 9.32996929,11.6424014 C9.40173828,11.4763393 9.26896565,11.2669565 9.2007851,11.1658752 C8.49744897,10.1081315 7.17689948,8.60274198 6.67092808,7.99625412 C6.35155606,7.60997911 6.33361381,7.55943845 6.17572202,7.43669686 C6.16844934,7.43091176 6.16110193,7.42514571 6.15368088,7.4194 C7.00704991,6.39518929 8.02190886,5.51177312 9.15884181,4.80880461 C9.27424044,4.99545152 9.41421838,5.17041309 9.5775719,5.32842912 L12.6600502,8.16592593 C12.7533499,8.24173691 13.0188951,8.44028948 13.2126714,8.35003831 C13.3777401,8.27422733 13.4136246,8.0251341 13.4315668,7.90600255 C13.6038124,6.64970626 13.6109893,4.63891017 13.63252,3.84830992 C13.6458581,3.37866812 13.6653933,3.30491064 13.6392984,3.13750991 C14.2786377,3.0345404 14.9343985,2.98104297 15.6025795,2.98104297 C16.287847,2.98104297 16.960051,3.03731142 17.6148752,3.1455062 Z M22.5031679,14.64596 C22.6215868,14.64596 23.0199047,14.4437974 22.9840202,14.0575223 C22.958901,13.7759387 22.495991,13.5232354 22.0940847,13.5340656 C21.5091674,13.5485057 21.0964957,14.1116731 20.891954,14.3932567 C20.4362209,15.0177948 20.3608635,15.5629119 19.7938884,16.5953853 C19.6898234,16.7831077 19.4637511,17.187433 19.1049061,17.2343636 C19.1049061,17.2343636 19.0439024,17.2415837 18.9757219,17.2343636 C18.7388842,17.2090932 18.2831511,16.9961005 17.7412952,15.6387229 C17.2496776,14.4113069 16.8549481,13.8625798 16.3956266,13.6315368 C15.8394169,13.3499532 15.1073731,13.4257642 14.619344,13.7326181 C13.8837118,14.1910941 13.5643398,15.2596679 13.4459209,15.649553 C13.4315671,15.6928736 13.334679,16.0213878 13.1301374,16.4148829 C12.9830109,16.7000766 12.8932997,16.8011579 12.8645921,16.8300383 C12.8035884,16.8950192 12.4878049,17.2343636 12.161256,17.2199234 C11.6337539,17.1982631 11.1851976,16.3029715 10.980656,15.6278927 C10.765349,14.9203235 10.4495655,14.4257471 9.9687132,13.9022903 C9.48786095,13.3788335 8.77734791,13.3680034 8.56921783,13.3896637 C8.56921783,13.3896637 8.44362209,13.3824436 8.3574993,13.4835249 C8.27137651,13.5846062 8.16013457,13.8842401 8.16013457,14.0178118 C8.16013457,14.1477735 8.3000841,14.5015581 8.67328287,14.5304385 C9.04289319,14.5593189 8.96394729,14.5412686 9.29408466,14.7795317 C9.62781049,15.0177948 9.77852537,15.4762708 10.0512475,16.2091103 C10.2234931,16.6675862 10.3957387,17.0502512 10.6505186,17.4004257 C10.7904682,17.5917582 10.9627138,17.8300213 11.2210821,18.0105236 C11.7342304,18.3715283 12.5021587,18.4292891 13.0834875,18.0827246 C13.8119428,17.6459089 14.1743762,16.6242656 14.4183908,15.9311367 C14.4291562,15.8950362 14.4722175,15.7686845 14.547575,15.6026224 C14.6982899,15.263278 14.8023549,15.0394551 14.9889543,14.8733929 C15.2724418,14.6242997 15.7174096,14.5304385 16.0224278,14.7326011 C16.119316,14.7975819 16.1767311,14.880613 16.2018503,14.9131034 C16.5140454,15.3535292 16.5606953,15.6206726 16.9410709,16.5917752 C17.6479955,18.3931886 18.9577796,18.3570881 18.9577796,18.3570881 C20.1204373,18.6242316 21.0677881,16.4509834 21.2328567,15.9636271 C21.3979254,15.4762708 21.4804598,15.4293401 21.713709,15.0177948 C21.9469582,14.6098595 22.3883375,14.64596 22.5031679,14.64596 Z" id="Combined-Shape"></path>
            <path d="M8.80246719,12.4979825 L4.60398107,12.4366117 C3.30855073,12.382461 2.18895443,11.6026909 1.74398667,10.4402558 C1.20930767,9.05399784 1.80857877,7.34283564 3.0753015,6.62443632 C4.30972819,5.92769728 5.74510806,6.29953211 6.55609769,6.94573049 C6.72116638,7.07569217 6.79652382,7.16955339 6.93288491,7.33922559 C6.9831232,7.40420644 7.05130375,7.48362747 7.14101499,7.59553892 C7.22713778,7.69662023 7.33479127,7.82658192 7.46038701,7.97098379 C8.07760035,8.6966032 9.10748541,9.90957894 9.71034496,10.8157007 C9.8072331,10.9637126 10.1050744,11.4077484 9.88976744,11.8914946 C9.79646775,12.1008774 9.53451092,12.458272 8.81682099,12.4943725 L8.80246719,12.4979825 Z M4.52503517,7.49806765 C4.24872455,7.49806765 3.95806012,7.55943845 3.6817495,7.71467046 C3.02506321,8.08650529 2.55138785,9.09009831 2.89946747,9.99261001 C3.16860119,10.689349 3.85040663,11.1622652 4.63986556,11.1911456 L8.50462586,11.2489063 C7.92688547,10.4366458 7.06206909,9.41500252 6.52380164,8.78324433 C6.3982059,8.63162236 6.28696396,8.50166067 6.20084117,8.40057936 C6.10395303,8.28505786 6.03577249,8.19841674 5.97835729,8.1334359 C5.85635,7.98181393 5.8491731,7.97459384 5.79175791,7.93127327 C5.51903573,7.71106042 5.04177193,7.49806765 4.52503517,7.49806765 Z" id="XMLID_219_"></path>
            <path d="M13.1050179,8.9962367 C12.8825341,8.9962367 12.5990465,8.91681567 12.2724976,8.65328225 L12.24379,8.62801192 L9.16131174,5.79051511 C8.22472637,4.88439336 7.9089428,3.55228608 8.33955676,2.38624095 C8.85629351,0.992762878 10.4316229,0.111911452 11.852649,0.422375479 C13.2377906,0.725619413 14.063134,1.96386547 14.2461449,2.98911877 C14.2820294,3.19489144 14.278441,3.31763304 14.2676756,3.53423585 C14.2640872,3.61726692 14.2604987,3.72195828 14.2569103,3.86275011 C14.2533218,3.99632184 14.2497334,4.16238399 14.2461449,4.35371648 C14.2282027,5.31037888 14.1994951,6.90601958 14.0523687,7.98903363 C14.0272495,8.16231588 13.9554805,8.69299276 13.4782167,8.91320562 C13.384917,8.95652618 13.2593213,8.9962367 13.1050179,8.9962367 Z M11.2677317,1.60647084 C10.5823378,1.60647084 9.78570198,2.03967646 9.49503756,2.81944657 C9.23666918,3.51979566 9.43403391,4.32844615 10.0045974,4.87717327 L12.8574149,7.50167731 C12.9614799,6.50530438 12.9865991,5.16597701 13.0045413,4.33205619 C13.0081298,4.13711367 13.0117182,3.96744146 13.0153067,3.83025968 C13.0188951,3.67863772 13.0224836,3.56672627 13.026072,3.48008514 C13.0332489,3.28514261 13.0332489,3.27431247 13.0224836,3.20572158 C12.9291839,2.68226479 12.4698623,1.83390379 11.5871037,1.63896126 C11.4830387,1.62091103 11.3789736,1.60647084 11.2677317,1.60647084 Z" id="XMLID_90_"></path>
            <path d="M18.150378,8.99623701 C17.9960746,8.99623701 17.8704789,8.9565265 17.7843561,8.91681598 C17.3035039,8.69660313 17.2317349,8.16592624 17.2102042,7.992644 C17.0630777,6.90962995 17.0343701,5.31398925 17.0164279,4.35732684 C17.0128394,4.16599436 17.009251,3.9999322 17.0056625,3.86636047 C17.0020741,3.72556864 16.9984856,3.61726724 16.9948972,3.53784621 C16.9841318,3.31763335 16.9805434,3.19850181 17.0164279,2.99272914 C17.1994388,1.97108589 18.0247822,0.729229777 19.4099238,0.425985843 C20.8309499,0.115521816 22.4062793,0.996373242 22.9230161,2.38985132 C23.35363,3.55589644 23.0378464,4.88800372 22.1120264,5.77968529 L18.9864868,8.65328256 C18.6563494,8.91681598 18.3728619,8.99623701 18.150378,8.99623701 Z M19.9876642,1.60647116 C19.8800107,1.60647116 19.7723572,1.6173013 19.6718806,1.63896158 C18.789122,1.83390411 18.3298005,2.68226511 18.2365008,3.2057219 C18.2257354,3.27431279 18.2257354,3.28514293 18.2329123,3.48008546 C18.2365008,3.56672658 18.2400892,3.67863804 18.2436777,3.82664996 C18.2472661,3.96022169 18.2508546,4.13350394 18.254443,4.32844646 C18.2687968,5.16236728 18.293916,6.50169466 18.4015695,7.49806758 L21.2651523,4.8627334 C21.821362,4.32483642 22.0223152,3.51618593 21.7639468,2.81583684 C21.4696939,2.03967678 20.6730581,1.60647116 19.9876642,1.60647116 Z" id="XMLID_155_"></path>
            <path d="M22.4529295,12.4979825 L22.4349873,12.4979825 C21.7172974,12.461882 21.4553405,12.1044874 21.3620408,11.8951047 C21.1503223,11.4113584 21.4445752,10.9637126 21.5414633,10.8193107 C22.1443229,9.91318898 23.1777964,8.6966032 23.7950097,7.97098379 C23.9206054,7.82297187 24.0282589,7.69662023 24.1107933,7.59553892 C24.204093,7.48723751 24.2686851,7.40420644 24.3189234,7.33922559 C24.4552845,7.16955339 24.5306419,7.07569217 24.6957106,6.94573049 C25.5067002,6.30314215 26.9420801,5.92769728 28.1765068,6.62443632 C29.4432295,7.33922559 30.0425006,9.05038779 29.5078216,10.4402558 C29.0592654,11.5990808 27.9432575,12.382461 26.662181,12.4366117 L22.4529295,12.4979825 Z M26.73395,7.49806765 C26.2172132,7.49806765 25.736361,7.71106042 25.4672273,7.92766323 C25.4134005,7.97098379 25.4062236,7.97820388 25.2806279,8.12982585 C25.2268011,8.19841674 25.1550321,8.28505786 25.058144,8.40057936 C24.9720212,8.50527072 24.8607793,8.63523241 24.7351835,8.78324433 C24.1969161,9.41861257 23.3320997,10.4366458 22.7507709,11.2525164 L26.6334734,11.1911456 C27.4049901,11.1586551 28.090384,10.689349 28.3559292,9.99261001 C28.7040089,9.09009831 28.2303335,8.08650529 27.5736472,7.71467046 C27.300925,7.55943845 27.0102606,7.49806765 26.73395,7.49806765 Z" id="XMLID_149_"></path>
            <path d="M27.9934959,21.4147981 C27.2148023,21.4147981 26.4325203,21.1187743 25.8188954,20.555607 L22.7651248,17.6061987 C22.280684,17.0719118 22.3416877,16.6350961 22.424222,16.4184933 C22.6108214,15.9239169 23.1347351,15.8156155 23.3033922,15.779515 C24.3655733,15.5629122 25.9516681,15.4257304 26.8954303,15.3463094 C27.0856182,15.3318692 27.2506869,15.317429 27.3834595,15.3029888 C27.5269975,15.2885486 27.6310625,15.2777185 27.7100084,15.2704984 C27.9253154,15.2488381 28.0437342,15.2343979 28.2518643,15.2596683 C29.2781609,15.3751898 30.5592374,16.1260795 30.9503785,17.4942872 C31.3522848,18.9022055 30.5807682,20.5411668 29.2315111,21.1476546 C28.8403701,21.328157 28.416933,21.4147981 27.9934959,21.4147981 Z M23.8667788,16.9419501 L26.6657696,19.6458752 C27.236333,20.1693319 28.0509111,20.3173439 28.7291281,20.0104899 C29.6047098,19.6133847 29.9707317,18.5664712 29.7626016,17.8372417 C29.5114101,16.9636104 28.6394169,16.5556751 28.1155032,16.4979143 C28.0473227,16.4906942 28.0365573,16.4906942 27.842781,16.5123545 C27.7566583,16.5231846 27.6454163,16.5340148 27.4982899,16.548455 C27.3655172,16.5592851 27.1968601,16.5737253 26.9994954,16.5917755 C26.174152,16.6567564 24.8464256,16.7722779 23.8667788,16.9419501 Z" id="XMLID_143_"></path>
            <path d="M23.65506,28.3677477 C23.5007567,28.3677477 23.3500418,28.3569176 23.1957385,28.3316473 C21.9756656,28.1330947 20.981665,27.1944825 20.6694699,25.9454063 L19.736473,21.7902424 C19.6216426,21.0754531 19.9158955,20.7433288 20.1024948,20.6097571 C20.5295203,20.2992931 21.0247264,20.4978457 21.1862066,20.5664365 C22.1909725,20.9743718 23.5868795,21.7360917 24.4193998,22.1945677 C24.5880569,22.2884289 24.7351834,22.3678499 24.8500138,22.4292207 C24.9756095,22.4978116 25.0689092,22.5447422 25.1406782,22.5808427 C25.3344545,22.681924 25.442108,22.7360747 25.5999997,22.8732565 C26.3930471,23.5375051 27.0533219,24.8732224 26.6298848,26.2342101 C26.2387438,27.4832863 24.9648441,28.3677477 23.65506,28.3677477 Z M21.013961,21.8443931 L21.8716005,25.6529925 C22.0617884,26.4074923 22.6610595,26.9814898 23.3931032,27.1006213 C24.3440423,27.2558533 25.2196241,26.5843846 25.4456964,25.8587652 C25.7148301,24.9887439 25.2088587,24.1692633 24.8033639,23.8263088 C24.7495372,23.7793782 24.7387718,23.7757682 24.5665262,23.685517 C24.4911688,23.6458065 24.3906922,23.5952658 24.2579196,23.5230649 C24.1395007,23.4580841 23.9887858,23.378663 23.8201287,23.2848018 C23.0952619,22.8876966 21.9254273,22.2487184 21.013961,21.8443931 Z" id="XMLID_137_"></path>
            <path d="M15.6528176,31.2630059 C14.8131204,31.2630059 13.9626578,30.9344916 13.374152,30.3099535 C12.5236895,29.4074418 12.2976171,28.0572843 12.8000001,26.8695789 L14.5583404,22.9959986 C14.8956547,22.3570204 15.3298571,22.2739893 15.5595179,22.2775993 C16.08702,22.2920395 16.3597422,22.7505155 16.4494534,22.9021374 C17.0056631,23.8371395 17.6551725,25.2955985 18.0427251,26.1656198 C18.121671,26.342512 18.1898515,26.4977441 18.2436783,26.6168756 C18.3010935,26.7468373 18.3477433,26.8406985 18.3836278,26.9165095 C18.4769275,27.1150621 18.5271658,27.2233635 18.5738156,27.4291361 C18.8034764,28.4435593 18.5271658,29.9056283 17.3680965,30.732329 C16.869302,31.0897236 16.262854,31.2630059 15.6528176,31.2630059 Z M15.5415757,23.8190893 L13.9303617,27.3713754 C13.628932,28.0861647 13.7581162,28.9092553 14.267676,29.4507624 C14.9279508,30.1511115 16.0331933,30.1547215 16.6468182,29.7142958 C17.3860388,29.1872289 17.4793385,28.2269565 17.3609196,27.7071097 C17.3465658,27.6385189 17.3429774,27.6276887 17.2568546,27.4507964 C17.2209701,27.3713754 17.1707318,27.2702941 17.1097282,27.1331123 C17.052313,27.0103707 16.9841324,26.8515287 16.9015981,26.6710263 C16.5714607,25.9165265 16.0260164,24.6927206 15.5415757,23.8190893 Z" id="XMLID_131_"></path>
            <path d="M7.60392525,28.3677477 C6.29414112,28.3677477 5.01665304,27.4832863 4.62910047,26.2306 C4.20566341,24.8696124 4.86593815,23.533895 5.65898553,22.8696464 C5.82046576,22.7360747 5.9245308,22.6783139 6.11830709,22.5808427 C6.19007608,22.5447422 6.28337577,22.4942016 6.40897151,22.4256107 C6.5238019,22.3642399 6.67092834,22.2812088 6.83958547,22.1909576 C7.6721058,21.7324817 9.06801272,20.9707618 10.0763671,20.5628265 C10.2378473,20.4978457 10.7330534,20.295683 11.1600789,20.6061471 C11.3430898,20.7397188 11.6373427,21.0718431 11.5261007,21.7866324 L11.5189238,21.8263429 L10.5966923,25.9273561 C10.2773203,27.1944825 9.28690815,28.1294847 8.06683526,28.3316473 C7.90894348,28.3569176 7.75464014,28.3677477 7.60392525,28.3677477 Z M10.2414358,21.8443931 C9.32996955,22.2451083 8.16013495,22.8876967 7.43167967,23.2848018 C7.25943408,23.378663 7.11230765,23.4616941 6.99388881,23.5230649 C6.86111617,23.5952658 6.76422803,23.6458065 6.68528214,23.685517 C6.51303655,23.7757682 6.50585965,23.7793782 6.44844446,23.8263088 C6.04294964,24.1656532 5.53697824,24.9887439 5.80611197,25.8587652 C6.03218429,26.5843846 6.91135447,27.2558533 7.85870518,27.1006213 C8.59074892,26.9814898 9.19002001,26.4038823 9.38379629,25.6349423 L10.2414358,21.8443931 Z" id="XMLID_54_"></path>
            <path d="M3.25831231,21.4147981 C2.83487525,21.4147981 2.41502663,21.328157 2.01670872,21.1476546 C0.66745164,20.5411668 -0.104065041,18.8985955 0.297841323,17.4942872 C0.688982338,16.1224695 1.97005887,15.3751898 2.99635548,15.2596683 C3.20448556,15.238008 3.3229044,15.2488381 3.53821138,15.2704984 C3.62074572,15.2777185 3.72481077,15.2921587 3.8647603,15.3029888 C3.99753294,15.313819 4.16260163,15.3282592 4.35278946,15.3463094 C5.30014017,15.4257304 6.88264648,15.5593022 7.94482759,15.779515 C8.11707317,15.8156155 8.63739837,15.9203068 8.82758621,16.4184933 C8.91012055,16.6314861 8.97112419,17.0719118 8.48668349,17.6061987 L8.45797589,17.6350791 L5.44367816,20.5447768 C4.82646482,21.1151642 4.04059434,21.4147981 3.25831231,21.4147981 Z M3.20448556,16.4906942 C3.18295486,16.4906942 3.16501262,16.4906942 3.13989347,16.4943043 C2.61597981,16.552065 1.74039809,16.9600003 1.49279507,17.8336316 C1.28466498,18.5628611 1.65068685,19.6097747 2.52626857,20.0068798 C3.20448556,20.3137338 4.01906364,20.1657219 4.60039249,19.631435 L7.38861789,16.93834 C6.40897112,16.7686678 5.08124474,16.6567564 4.25231287,16.5845554 C4.05853659,16.5665052 3.88987945,16.552065 3.75351836,16.5412349 C3.60280348,16.5267947 3.49514999,16.5159646 3.40902719,16.5051344 C3.29060835,16.4979143 3.24037006,16.4906942 3.20448556,16.4906942 Z" id="XMLID_60_"></path>
        </g>
    </g>
</svg>