<?xml version="1.0" encoding="UTF-8"?>
<svg width="32px" height="32px" viewBox="0 0 32 32" version="1.1" xmlns="http://www.w3.org/2000/svg" xmlns:xlink="http://www.w3.org/1999/xlink">
    <!-- Generator: Sketch 43.1 (39012) - http://www.bohemiancoding.com/sketch -->
    <title>worbli</title>
    <desc>Created with Sketch.</desc>
    <defs></defs>
    <g id="Page-1" stroke="none" stroke-width="1" fill="none" fill-rule="evenodd">
        <g id="Desktop" transform="translate(-453.000000, -692.000000)">
            <g id="worbli" transform="translate(453.000000, 692.000000)">
                <g id="XMLID_49_">
                    <g id="XMLID_165_" transform="translate(3.229605, 2.888037)" fill-rule="nonzero" fill="#9B9B9B">
                        <ellipse id="XMLID_39_" cx="12.3729745" cy="12.490762" rx="11.6122232" ry="11.6821115"></ellipse>
                        <path d="M12.3729745,24.7938016 C5.63027754,24.7938016 0.143537987,19.27404 0.143537987,12.490762 C0.143537987,5.70748404 5.63027754,0.187722435 12.3729745,0.187722435 C19.1156714,0.187722435 24.602411,5.70748404 24.602411,12.490762 C24.602411,19.27404 19.1156714,24.7938016 12.3729745,24.7938016 Z M12.3729745,1.43318859 C6.31208298,1.43318859 1.38155313,6.39339293 1.38155313,12.490762 C1.38155313,18.5881311 6.31208298,23.5483355 12.3729745,23.5483355 C18.433866,23.5483355 23.3643959,18.5881311 23.3643959,12.490762 C23.3643959,6.39339293 18.433866,1.43318859 12.3729745,1.43318859 Z" id="XMLID_166_"></path>
                    </g>
                    <path d="M22.5031679,14.64596 C22.3883375,14.64596 21.9469582,14.6098595 21.713709,15.0177948 C21.4804598,15.4293401 21.3979254,15.4762708 21.2328567,15.9636271 C21.0677881,16.4509834 20.1204373,18.6242316 18.9577796,18.3570881 C18.9577796,18.3570881 17.6479955,18.3931886 16.9410709,16.5917752 C16.5606953,15.6206726 16.5140454,15.3535292 16.2018503,14.9131034 C16.1767311,14.880613 16.119316,14.7975819 16.0224278,14.7326011 C15.7174096,14.5304385 15.2724418,14.6242997 14.9889543,14.8733929 C14.8023549,15.0394551 14.6982899,15.263278 14.547575,15.6026224 C14.4722175,15.7686845 14.4291562,15.8950362 14.4183908,15.9311367 C14.1743762,16.6242656 13.8119428,17.6459089 13.0834875,18.0827246 C12.5021587,18.4292891 11.7342304,18.3715283 11.2210821,18.0105236 C10.9627138,17.8300213 10.7904682,17.5917582 10.6505186,17.4004257 C10.3957387,17.0502512 10.2234931,16.6675862 10.0512475,16.2091103 C9.77852537,15.4762708 9.62781049,15.0177948 9.29408466,14.7795317 C8.96394729,14.5412686 9.04289319,14.5593189 8.67328287,14.5304385 C8.3000841,14.5015581 8.16013457,14.1477735 8.16013457,14.0178118 C8.16013457,13.8842401 8.27137651,13.5846062 8.3574993,13.4835249 C8.44362209,13.3824436 8.56921783,13.3896637 8.56921783,13.3896637 C8.77734791,13.3680034 9.48786095,13.3788335 9.9687132,13.9022903 C10.4495655,14.4257471 10.765349,14.9203235 10.980656,15.6278927 C11.1851976,16.3029715 11.6337539,17.1982631 12.161256,17.2199234 C12.4878049,17.2343636 12.8035884,16.8950192 12.8645921,16.8300383 C12.8932997,16.8011579 12.9830109,16.7000766 13.1301374,16.4148829 C13.334679,16.0213878 13.4315671,15.6928736 13.4459209,15.649553 C13.5643398,15.2596679 13.8837118,14.1910941 14.619344,13.7326181 C15.1073731,13.4257642 15.8394169,13.3499532 16.3956266,13.6315368 C16.8549481,13.8625798 17.2496776,14.4113069 17.7412952,15.6387229 C18.2831511,16.9961005 18.7388842,17.2090932 18.9757219,17.2343636 C19.0439024,17.2415837 19.1049061,17.2343636 19.1049061,17.2343636 C19.4637511,17.187433 19.6898234,16.7831077 19.7938884,16.5953853 C20.3608635,15.5629119 20.4362209,15.0177948 20.891954,14.3932567 C21.0964957,14.1116731 21.5091674,13.5485057 22.0940847,13.5340656 C22.495991,13.5232354 22.958901,13.7759387 22.9840202,14.0575223 C23.0199047,14.4437974 22.6215868,14.64596 22.5031679,14.64596 Z" id="XMLID_38_" fill="#000000" fill-rule="nonzero"></path>
                    <g id="XMLID_33_" opacity="0.05" transform="translate(5.382675, 3.610047)">
                        <path d="" id="XMLID_4_" fill-rule="nonzero"></path>
                        <g id="XMLID_34_">
                            <path d="M16.5068685,7.26341422 L15.2796187,9.64965517 L13.3597981,9.86986803 L12.1504906,8.46194977 L13.334679,7.62802895 L13.6504626,3.23460196 C14.045192,2.52342273 14.4399215,1.81224351 14.8382394,1.10106428 C13.8765349,0.696739038 12.0930754,0.0974712644 9.80723297,0.194942529 C7.2091954,0.30685398 5.29655172,1.26351639 4.37432016,1.80502341 C4.60756939,2.17685824 4.85158396,2.64255428 5.04536025,3.20572158 C5.13148304,3.45120477 5.19607513,3.68585781 5.24631343,3.90607067 L7.83358565,4.87356322 L6.20442949,10.1225713 L3.94011775,11.1478246 L5.63027754,13.0755896 L10.6397533,12.9564581 L11.9746566,16.0683184 L11.3107934,19.7252959 C11.3251472,19.7216858 11.339501,19.7216858 11.3538548,19.7180758 C11.3538548,19.7180758 11.3825624,19.7144657 11.4076815,19.7108557 C11.443566,19.7036356 13.1696103,20.7144487 15.5021026,22.1476373 C15.6599944,22.1115368 15.8501822,22.0537761 16.0547239,21.9635249 C16.29515,21.8552235 16.4925147,21.7324819 16.6396412,21.6241805 C16.3417998,21.3173265 16.0044856,20.8624606 15.8394169,20.2487527 C15.7820017,20.0393699 15.7640594,19.8660877 15.7497056,19.7505662 C15.6276983,18.6928225 15.9255397,17.6495189 16.582226,16.8192082 C16.8872442,16.4329332 17.2568545,16.115249 17.6659378,15.8697659 L15.2437342,13.2813623 L17.3465657,9.40778203 L16.5068685,7.26341422 Z" id="XMLID_3_"></path>
                        </g>
                    </g>
                    <g id="XMLID_2_" transform="translate(16.865713, 0.361005)" fill-rule="nonzero">
                        <g id="XMLID_154_">
                            <path d="M1.72963274,7.80492124 L4.81211102,4.96742444 C5.55850855,4.24541507 5.81687693,3.16962112 5.47238576,2.24183908 C5.027418,1.04330353 3.71404542,0.440425713 2.67339501,0.67146871 C1.52867956,0.920561941 0.897112419,1.96025543 0.757162882,2.7364155 C0.721278385,2.93496807 0.742809083,2.98189868 0.757162882,3.48730524 C0.77869358,4.27790549 0.785870479,6.28870158 0.958116064,7.54499787 C0.976058312,7.66412942 1.01194281,7.91322265 1.17701149,7.98903363 C1.37078778,8.0792848 1.63633305,7.88073223 1.72963274,7.80492124 Z" id="XMLID_32_" fill="#000000"></path>
                            <path d="M1.28466498,8.63523201 C1.13036165,8.63523201 1.00476591,8.5955215 0.918643117,8.55581098 C0.437790861,8.33559813 0.366021867,7.80492124 0.344491169,7.631639 C0.197364732,6.54862495 0.168657135,4.95298425 0.150714886,3.99632184 C0.147126437,3.80498936 0.143537987,3.6389272 0.139949537,3.50535547 C0.136361088,3.36456364 0.132772638,3.25626224 0.129184188,3.17684121 C0.118418839,2.95662835 0.11483039,2.83749681 0.150714886,2.63172414 C0.33372582,1.61008089 1.15906925,0.368224777 2.54421082,0.0649808429 C3.96523689,-0.245483184 5.5405663,0.635368242 6.05730306,2.02884632 C6.48791702,3.19489144 6.17213345,4.52699872 5.24631343,5.41868029 L2.12077376,8.29227756 C1.79063639,8.55581098 1.50714886,8.63523201 1.28466498,8.63523201 Z M3.12195122,1.24546616 C3.01429773,1.24546616 2.90664424,1.2562963 2.80616765,1.27795658 C1.92340903,1.47289911 1.46408747,2.32126011 1.37078778,2.8447169 C1.36002243,2.91330779 1.36002243,2.92413793 1.36719933,3.11908046 C1.37078778,3.20572158 1.37437623,3.31763304 1.37796468,3.46564496 C1.38155313,3.59921669 1.38514158,3.77249894 1.38873003,3.96744146 C1.40308382,4.80136228 1.42820297,6.14068966 1.53585646,7.13706258 L4.3994393,4.5017284 C4.955649,3.96383142 5.15660219,3.15518093 4.89823381,2.45483184 C4.60398094,1.67867178 3.80734511,1.24546616 3.12195122,1.24546616 Z" id="XMLID_155_" fill="#9B9B9B"></path>
                        </g>
                    </g>
                    <g id="XMLID_29_" transform="translate(21.171853, 6.137080)" fill-rule="nonzero">
                        <g id="XMLID_148_">
                            <path d="M1.29184188,5.73636441 L5.46879731,5.67499361 C6.50227082,5.63167305 7.40656013,4.99991486 7.76181665,4.07935292 C8.22113821,2.88803746 7.63263246,1.55954023 6.703224,1.03247339 C5.68051584,0.4548659 4.52503504,0.80865049 3.9078217,1.29961686 C3.74992991,1.42235845 3.73198766,1.47289911 3.41261564,1.85917412 C2.90664424,2.46566198 1.58609476,3.97105151 0.882758621,5.02879523 C0.814578077,5.12987654 0.681805439,5.33925926 0.753574432,5.50532141 C0.843285674,5.70387399 1.17342304,5.73275436 1.29184188,5.73636441 Z" id="XMLID_30_" fill="#000000"></path>
                            <path d="M1.28107653,6.36090251 L1.26313429,6.36090251 C0.545444351,6.32480204 0.283487525,5.96740741 0.190187833,5.75802469 C-0.0215306981,5.27427842 0.272722175,4.82663261 0.369610317,4.68223074 C0.972469863,3.77610898 2.00594337,2.5595232 2.62315671,1.83390379 C2.74875245,1.68589187 2.85640594,1.55954023 2.93894029,1.45845892 C3.03223998,1.35015751 3.09683207,1.26712644 3.14707037,1.20214559 C3.28343146,1.03247339 3.3587889,0.938612175 3.52385758,0.80865049 C4.33484721,0.166062154 5.77022708,-0.209382716 7.00465377,0.487356322 C8.27137651,1.20214559 8.8706476,2.91330779 8.3359686,4.30317582 C7.88741239,5.46200085 6.77140454,6.24538101 5.49032801,6.29953172 L1.28107653,6.36090251 Z M5.562097,1.36098765 C5.04536025,1.36098765 4.56450799,1.57398042 4.29537426,1.79058323 C4.24154752,1.83390379 4.23437062,1.84112388 4.10877488,1.99274585 C4.05494814,2.06133674 3.98317914,2.14797786 3.886291,2.26349936 C3.80016821,2.36819072 3.68892627,2.49815241 3.56333053,2.64616433 C3.02506308,3.28153257 2.16024671,4.29956577 1.57891786,5.11543636 L5.46162041,5.05406556 C6.23313709,5.02157514 6.91853098,4.55226905 7.18407625,3.85553001 C7.53215587,2.95301831 7.05848052,1.94942529 6.40179422,1.57759046 C6.12907205,1.42235845 5.83840763,1.36098765 5.562097,1.36098765 Z" id="XMLID_149_" fill="#9B9B9B"></path>
                        </g>
                    </g>
                    <g id="XMLID_27_" transform="translate(22.248388, 15.162197)" fill-rule="nonzero">
                        <g id="XMLID_142_">
                            <path d="M0.976058312,2.02162622 L3.99035604,4.93132397 C4.75469582,5.63167305 5.83840763,5.82300553 6.73552004,5.41507024 C7.89458929,4.89161345 8.40773759,3.5306258 8.11348472,2.50176245 C7.79052425,1.36820775 6.7175778,0.801430396 5.93888422,0.714789272 C5.74151948,0.693128991 5.69128119,0.714789272 5.19607513,0.761719881 C4.4137931,0.833920817 2.42220353,0.974712644 1.18418839,1.22741592 C1.06576955,1.25268625 0.821754976,1.30322691 0.757162882,1.47650915 C0.678216989,1.67867178 0.89352397,1.93137505 0.976058312,2.02162622 Z" id="XMLID_28_" fill="#000000"></path>
                            <path d="M5.74510793,6.25260111 C4.96641435,6.25260111 4.18413232,5.95657727 3.57050743,5.39340996 L0.516736754,2.4440017 C0.0322960471,1.90971477 0.0932996916,1.47289911 0.175834034,1.2562963 C0.362433417,0.761719881 0.88634707,0.653418476 1.05500421,0.617318008 C2.11718531,0.400715198 3.70328007,0.263533418 4.64704233,0.184112388 C4.83723017,0.169672201 5.00229885,0.155232014 5.13507149,0.140791826 C5.27860948,0.126351639 5.38267452,0.115521499 5.46162041,0.108301405 C5.67692739,0.0866411239 5.79534623,0.0722009366 6.00347631,0.0974712644 C7.02977292,0.212992763 8.31084945,0.963882503 8.70199047,2.33209025 C9.10389683,3.74000851 8.33238015,5.37896977 6.98312307,5.98545764 C6.59198206,6.16595998 6.168545,6.25260111 5.74510793,6.25260111 Z M1.6183908,1.77975309 L4.41738155,4.48367816 C4.98794505,5.00713495 5.80252313,5.15514687 6.48074012,4.84829289 C7.35632184,4.45118774 7.72234371,3.40427416 7.51421362,2.6750447 C7.26302215,1.80141337 6.39102888,1.39347808 5.86711522,1.33571733 C5.79893468,1.32849723 5.78816933,1.32849723 5.59439305,1.35015751 C5.50827026,1.36098765 5.39702832,1.37181779 5.24990188,1.38625798 C5.11712924,1.39708812 4.94847211,1.41152831 4.75110737,1.42957854 C3.92576395,1.49455939 2.59803757,1.61008089 1.6183908,1.77975309 Z" id="XMLID_143_" fill="#9B9B9B"></path>
                        </g>
                    </g>
                    <g id="XMLID_25_" transform="translate(19.377628, 20.216262)" fill-rule="nonzero">
                        <g id="XMLID_136_">
                            <path d="M0.965292963,1.47289911 L1.88752453,5.5739123 C2.14230446,6.58111537 2.94252874,7.3392252 3.9149986,7.50167731 C5.16736754,7.70744998 6.34079058,6.85547893 6.6601626,5.83022563 C7.01183067,4.70389102 6.42691337,3.6389272 5.82405383,3.13352065 C5.66975049,3.00355896 5.6195122,2.99633887 5.17813288,2.76168582 C4.4855621,2.389851 2.745164,1.40069817 1.57174096,0.927782035 C1.46049902,0.880851426 1.22724979,0.790600255 1.08012335,0.89890166 C0.907877768,1.0252533 0.947350715,1.35737761 0.965292963,1.47289911 Z" id="XMLID_26_" fill="#000000"></path>
                            <path d="M4.27743202,8.15148574 C4.12312868,8.15148574 3.97241379,8.1406556 3.81811046,8.11538527 C2.59803757,7.91683269 1.60403701,6.97822052 1.29184188,5.72914432 L0.358844968,1.57398042 C0.244014578,0.859191145 0.538267452,0.527066837 0.724866835,0.393495104 C1.15189235,0.0830310771 1.6470984,0.281583653 1.80857864,0.350174542 C2.81334455,0.758109834 4.20925147,1.51982971 5.0417718,1.97830566 C5.21042893,2.07216688 5.35755537,2.15158791 5.47238576,2.21295871 C5.5979815,2.2815496 5.69128119,2.3284802 5.76305018,2.36458067 C5.95682646,2.46566198 6.06447996,2.51981269 6.22237174,2.65699447 C7.01541912,3.32124308 7.67569386,4.65696041 7.2522568,6.01794806 C6.86111578,7.26702427 5.58721615,8.15148574 4.27743202,8.15148574 Z M1.63633305,1.62813112 L2.49397253,5.43673052 C2.68416036,6.19123031 3.28343146,6.76522776 4.01547519,6.8843593 C4.96641435,7.03959132 5.84199608,6.36812261 6.0680684,5.64250319 C6.33720213,4.77248191 5.83123073,3.95300128 5.42573591,3.61004683 C5.37190917,3.56311622 5.36114382,3.55950617 5.18889823,3.469255 C5.11354079,3.42954449 5.0130642,3.37900383 4.88029156,3.30680289 C4.76187272,3.24182205 4.61115784,3.16240102 4.4425007,3.0685398 C3.71763387,2.67143465 2.54779927,2.03245636 1.63633305,1.62813112 Z" id="XMLID_137_" fill="#9B9B9B"></path>
                        </g>
                    </g>
                    <g id="XMLID_23_" transform="translate(12.200729, 22.021286)" fill-rule="nonzero">
                        <g id="XMLID_130_">
                            <path d="M2.90305579,1.26712644 L1.16983459,5.09377607 C0.764339781,6.05043848 0.947350715,7.14428267 1.62197925,7.86268199 C2.49756098,8.79046403 3.94011775,8.8265645 4.81211102,8.20563644 C5.76663863,7.52333759 5.94606112,6.321192 5.77022708,5.55225202 C5.72716569,5.35730949 5.68769274,5.31759898 5.47956266,4.86273308 C5.15301374,4.14433376 4.36355481,2.29598978 3.71763387,1.20575564 C3.65663022,1.10106428 3.52744603,0.88807152 3.3444351,0.884461473 C3.12553967,0.873631332 2.96047098,1.15882503 2.90305579,1.26712644 Z" id="XMLID_24_" fill="#000000"></path>
                            <path d="M3.45208859,9.24171988 C2.61239137,9.24171988 1.76192879,8.91320562 1.17342304,8.28866752 C0.322960471,7.38615581 0.0968881413,6.0359983 0.599271096,4.84829289 L2.35761144,0.974712644 C2.69492571,0.335734355 3.12912812,0.252703278 3.3587889,0.256313325 C3.886291,0.270753512 4.15901318,0.729229459 4.24872442,0.880851426 C4.80493412,1.81585355 5.45444351,3.27431247 5.84199608,4.14433376 C5.92094197,4.32122605 5.98912251,4.47645807 6.04294926,4.59558961 C6.10036445,4.7255513 6.1470143,4.81941252 6.18289879,4.8952235 C6.27619849,5.09377607 6.32643678,5.20207748 6.37308663,5.40785015 C6.60274741,6.42227331 6.32643678,7.88434227 5.16736754,8.711043 C4.66857303,9.06843763 4.06212504,9.24171988 3.45208859,9.24171988 Z M3.34084665,1.79780332 L1.72963274,5.3500894 C1.42820297,6.06487867 1.55738716,6.88796935 2.06694701,7.42947637 C2.72722175,8.12982546 3.83246426,8.1334355 4.44608915,7.69300979 C5.18530978,7.16594295 5.27860948,6.2056705 5.16019064,5.68582375 C5.14583684,5.61723287 5.14224839,5.60640272 5.0561256,5.42951043 C5.0202411,5.3500894 4.9700028,5.24900809 4.90899916,5.11182631 C4.85158396,4.98908472 4.78340342,4.83024266 4.70086908,4.64974032 C4.37073171,3.89524053 3.82528736,2.67143465 3.34084665,1.79780332 Z" id="XMLID_131_" fill="#9B9B9B"></path>
                        </g>
                    </g>
                    <g id="XMLID_20_" transform="translate(7.894589, 0.000000)" fill-rule="nonzero">
                        <g id="XMLID_89_">
                            <path d="M4.76546117,8.16592593 L1.6829829,5.32842912 C0.936585366,4.60641975 0.678216989,3.5306258 1.02270816,2.60284376 C1.46767592,1.40430822 2.7810485,0.801430396 3.82169891,1.03247339 C4.96641435,1.28156662 5.5979815,2.32126011 5.73793103,3.09742018 C5.77381553,3.29597275 5.75228483,3.34290336 5.73793103,3.84830992 C5.71640034,4.63891017 5.70922344,6.64970626 5.53697785,7.90600255 C5.5190356,8.0251341 5.48315111,8.27422733 5.31808242,8.35003831 C5.12430614,8.44028948 4.85876086,8.24173691 4.76546117,8.16592593 Z" id="XMLID_22_" fill="#000000"></path>
                            <path d="M5.21042893,8.9962367 C4.98794505,8.9962367 4.70445753,8.91681567 4.37790861,8.65328225 L4.34920101,8.62801192 L1.26672274,5.79051511 C0.33013737,4.88439336 0.0143537987,3.55228608 0.44496776,2.38624095 C0.961704514,0.992762878 2.53703392,0.111911452 3.95805999,0.422375479 C5.34320157,0.725619413 6.168545,1.96386547 6.35155593,2.98911877 C6.38744043,3.19489144 6.38385198,3.31763304 6.37308663,3.53423585 C6.36949818,3.61726692 6.36590973,3.72195828 6.36232128,3.86275011 C6.35873283,3.99632184 6.35514438,4.16238399 6.35155593,4.35371648 C6.33361368,5.31037888 6.30490608,6.90601958 6.15777965,7.98903363 C6.1326605,8.16231588 6.06089151,8.69299276 5.5836277,8.91320562 C5.49032801,8.95652618 5.36473227,8.9962367 5.21042893,8.9962367 Z M3.3731427,1.60647084 C2.68774881,1.60647084 1.89111298,2.03967646 1.60044856,2.81944657 C1.34208018,3.51979566 1.53944491,4.32844615 2.11000841,4.87717327 L4.9628259,7.50167731 C5.06689094,6.50530438 5.09201009,5.16597701 5.10995234,4.33205619 C5.11354079,4.13711367 5.11712924,3.96744146 5.12071769,3.83025968 C5.12430614,3.67863772 5.12789459,3.56672627 5.13148304,3.48008514 C5.13865994,3.28514261 5.13865994,3.27431247 5.12789459,3.20572158 C5.0345949,2.68226479 4.57527334,1.83390379 3.69251472,1.63896126 C3.58844968,1.62091103 3.48438464,1.60647084 3.3731427,1.60647084 Z" id="XMLID_90_" fill="#9B9B9B"></path>
                        </g>
                    </g>
                    <g id="XMLID_15_" transform="translate(1.435380, 6.137080)" fill-rule="nonzero">
                        <g id="XMLID_217_">
                            <g id="XMLID_218_">
                                <path d="M7.35632184,5.73636441 L3.17936641,5.67499361 C2.14589291,5.63167305 1.24160359,4.99991486 0.88634707,4.07935292 C0.427025512,2.88803746 1.01553126,1.55954023 1.94493973,1.03247339 C2.96764788,0.4548659 4.12312868,0.80865049 4.74034202,1.29961686 C4.89823381,1.42235845 4.91617606,1.47289911 5.23554808,1.85917412 C5.74151948,2.46566198 7.06206897,3.97105151 7.7654051,5.02879523 C7.83358565,5.12987654 7.96635828,5.33925926 7.89458929,5.50532141 C7.80487805,5.70387399 7.47474068,5.73275436 7.35632184,5.73636441 Z" id="XMLID_222_" fill="#101010"></path>
                                <path d="M7.36708719,6.36090251 L3.16860107,6.29953172 C1.87317073,6.24538101 0.753574432,5.4656109 0.308606672,4.30317582 C-0.22607233,2.91691784 0.373198766,1.20575564 1.6399215,0.487356322 C2.87434819,-0.209382716 4.30972806,0.162452107 5.12071769,0.80865049 C5.28578638,0.938612175 5.36114382,1.03247339 5.49750491,1.20214559 C5.5477432,1.26712644 5.61592375,1.34654747 5.70563499,1.45845892 C5.79175778,1.55954023 5.89941127,1.68950192 6.02500701,1.83390379 C6.64222035,2.5595232 7.67210541,3.77249894 8.27496496,4.67862069 C8.3718531,4.82663261 8.66969442,5.27066837 8.45438744,5.75441464 C8.36108775,5.96379736 8.09913092,6.321192 7.38144099,6.35729246 L7.36708719,6.36090251 Z M3.08965517,1.36098765 C2.81334455,1.36098765 2.52268012,1.42235845 2.2463695,1.57759046 C1.58968321,1.94942529 1.11600785,2.95301831 1.46408747,3.85553001 C1.73322119,4.55226905 2.41502663,5.02518519 3.20448556,5.05406556 L7.06924586,5.11182631 C6.49150547,4.29956577 5.62668909,3.27792252 5.08842164,2.64616433 C4.9628259,2.49454236 4.85158396,2.36458067 4.76546117,2.26349936 C4.66857303,2.14797786 4.60039249,2.06133674 4.54297729,1.9963559 C4.42097,1.84473393 4.4137931,1.83751384 4.35637791,1.79419327 C4.08365573,1.57398042 3.60639193,1.36098765 3.08965517,1.36098765 Z" id="XMLID_219_" fill="#9B9B9B"></path>
                            </g>
                        </g>
                    </g>
                    <g id="XMLID_13_" transform="translate(0.000000, 15.162197)" fill-rule="nonzero">
                        <g id="XMLID_59_">
                            <path d="M8.03453883,2.02162622 L5.0202411,4.93132397 C4.25590132,5.63167305 3.17218951,5.82300553 2.2750771,5.41507024 C1.11600785,4.89161345 0.602859546,3.5306258 0.897112419,2.50176245 C1.22007289,1.36820775 2.29301934,0.801430396 3.07171292,0.714789272 C3.26907766,0.693128991 3.31931595,0.714789272 3.81452201,0.761719881 C4.59680404,0.833920817 6.58839361,0.974712644 7.82640875,1.22741592 C7.94482759,1.25268625 8.18884216,1.30322691 8.25343426,1.47650915 C8.3287917,1.67867178 8.11348472,1.93137505 8.03453883,2.02162622 Z" id="XMLID_14_" fill="#000000"></path>
                            <path d="M3.25831231,6.25260111 C2.83487525,6.25260111 2.41502663,6.16595998 2.01670872,5.98545764 C0.66745164,5.37896977 -0.104065041,3.73639847 0.297841323,2.33209025 C0.688982338,0.960272456 1.97005887,0.212992763 2.99635548,0.0974712644 C3.20448556,0.0758109834 3.3229044,0.0866411239 3.53821138,0.108301405 C3.62074572,0.115521499 3.72481077,0.129961686 3.8647603,0.140791826 C3.99753294,0.151621967 4.16260163,0.166062154 4.35278946,0.184112388 C5.30014017,0.263533418 6.88264648,0.397105151 7.94482759,0.617318008 C8.11707317,0.653418476 8.63739837,0.758109834 8.82758621,1.2562963 C8.91012055,1.46928906 8.97112419,1.90971477 8.48668349,2.4440017 L8.45797589,2.47288208 L5.44367816,5.38257982 C4.82646482,5.95296722 4.04059434,6.25260111 3.25831231,6.25260111 Z M3.20448556,1.32849723 C3.18295486,1.32849723 3.16501262,1.32849723 3.13989347,1.33210728 C2.61597981,1.38986803 1.74039809,1.79780332 1.49279507,2.67143465 C1.28466498,3.40066411 1.65068685,4.44757769 2.52626857,4.84468284 C3.20448556,5.15153682 4.01906364,5.0035249 4.60039249,4.46923797 L7.38861789,1.77614304 C6.40897112,1.60647084 5.08124474,1.49455939 4.25231287,1.42235845 C4.05853659,1.40430822 3.88987945,1.38986803 3.75351836,1.37903789 C3.60280348,1.3645977 3.49514999,1.35376756 3.40902719,1.34293742 C3.29060835,1.33571733 3.24037006,1.32849723 3.20448556,1.32849723 Z" id="XMLID_60_" fill="#9B9B9B"></path>
                        </g>
                    </g>
                    <g id="XMLID_1_" transform="translate(4.306140, 20.216262)" fill-rule="nonzero">
                        <g id="XMLID_53_">
                            <path d="M6.60633586,1.47289911 L5.68410429,5.5739123 C5.42932436,6.58111537 4.62910008,7.3392252 3.65663022,7.50167731 C2.40426128,7.70744998 1.23083824,6.85547893 0.911466218,5.83022563 C0.55979815,4.70389102 1.14471545,3.6389272 1.74757499,3.13352065 C1.90187833,3.00355896 1.95211662,2.99633887 2.39349593,2.76168582 C3.08606672,2.389851 4.82646482,1.40069817 5.99988786,0.927782035 C6.1111298,0.880851426 6.34437903,0.790600255 6.49150547,0.89890166 C6.6673395,1.0252533 6.6242781,1.35737761 6.60633586,1.47289911 Z" id="XMLID_11_" fill="#000000"></path>
                            <path d="M3.29778525,8.15148574 C1.98800112,8.15148574 0.710513036,7.26702427 0.322960471,6.01433802 C-0.100476591,4.65335036 0.55979815,3.31763304 1.35284553,2.65338442 C1.51432576,2.51981269 1.6183908,2.46205194 1.81216709,2.36458067 C1.88393608,2.3284802 1.97723577,2.27793955 2.10283151,2.20934866 C2.2176619,2.14797786 2.36478834,2.06494679 2.53344547,1.97469562 C3.3659658,1.51621967 4.76187272,0.754499787 5.77022708,0.346564496 C5.93170732,0.281583653 6.42691337,0.0794210302 6.85393888,0.389885057 C7.03694982,0.52345679 7.33120269,0.855581098 7.21996075,1.57037037 L7.21278385,1.61008089 L6.29055228,5.71109408 C5.97118026,6.97822052 4.98076815,7.91322265 3.76069526,8.11538527 C3.60280348,8.1406556 3.44850014,8.15148574 3.29778525,8.15148574 Z M5.93529577,1.62813112 C5.02382955,2.02884632 3.85399495,2.67143465 3.12553967,3.0685398 C2.95329408,3.16240102 2.80616765,3.2454321 2.68774881,3.30680289 C2.55497617,3.37900383 2.45808803,3.42954449 2.37914214,3.469255 C2.20689655,3.55950617 2.19971965,3.56311622 2.14230446,3.61004683 C1.73680964,3.94939123 1.23083824,4.77248191 1.49997197,5.64250319 C1.72604429,6.36812261 2.60521447,7.03959132 3.55256518,6.8843593 C4.28460892,6.76522776 4.88388001,6.18762026 5.07765629,5.41868029 L5.93529577,1.62813112 Z" id="XMLID_54_" fill="#9B9B9B"></path>
                        </g>
                    </g>
                </g>
            </g>
        </g>
    </g>
</svg>