<?xml version="1.0" encoding="UTF-8"?>
<svg width="150px" height="31px" viewBox="0 0 150 31" version="1.1" xmlns="http://www.w3.org/2000/svg" xmlns:xlink="http://www.w3.org/1999/xlink">
    <!-- Generator: Sketch 43.1 (39012) - http://www.bohemiancoding.com/sketch -->
    <title>Group 2</title>
    <desc>Created with Sketch.</desc>
    <defs></defs>
    <g id="Page-1" stroke="none" stroke-width="1" fill="none" fill-rule="evenodd">
        <g id="Group-2" fill-rule="nonzero">
            <g id="Group" fill="#FFFFFF">
                <path d="M16.5287356,0.224137931 C17.3678161,0.224137931 18.0747126,0.396551724 18.6522989,0.738505747 C19.2270115,1.08045977 19.7902299,1.75 20.341954,2.74425287 L31.3189655,22.6724138 C31.4281609,22.8936782 31.4568966,23.0747126 31.4022989,23.2183908 C31.3477011,23.362069 31.1867816,23.433908 30.9224138,23.433908 L26.7097701,23.433908 C26.3333333,23.433908 26.0804598,23.2902299 25.9482759,23.0028736 C22.5488506,16.8333333 19.6666667,11.4942529 16.2298851,5.1637931 C16.1408046,5.00862069 16.0201149,4.93103448 15.8649425,4.93103448 L15.6666667,4.93103448 C15.5114943,4.93103448 15.3908046,5.00862069 15.3017241,5.1637931 C12.0517241,11.2298851 8.93678161,16.9856322 5.7183908,23.0057471 C5.56321839,23.2931034 5.31034483,23.4367816 4.95689655,23.4367816 L0.646551724,23.4367816 C0.359195402,23.4367816 0.186781609,23.3649425 0.132183908,23.2212644 C0.0775862069,23.0775862 0.103448276,22.8936782 0.215517241,22.6752874 L11.091954,2.74425287 C11.6436782,1.75 12.1867816,1.08045977 12.7155172,0.738505747 C13.2471264,0.396551724 13.8649425,0.224137931 14.5718391,0.224137931 L16.5287356,0.224137931 Z" id="Shape">
                
                </path>
                <path d="M37.4511494,15.4454023 C37.4511494,16.0201149 37.5057471,16.5 37.6178161,16.887931 C37.7270115,17.2758621 37.9224138,17.5948276 38.1982759,17.8505747 C38.4741379,18.1034483 38.8448276,18.2873563 39.3103448,18.3965517 C39.7729885,18.5057471 40.3591954,18.5632184 41.0689655,18.5632184 L53.0718391,18.5632184 L53.0718391,12.3591954 C53.0718391,11.1867816 52.8218391,10.3591954 52.3247126,9.87356322 C51.8275862,9.38793103 50.8591954,9.14367816 49.4224138,9.14367816 L41.066092,9.14367816 C40.3591954,9.14367816 39.7729885,9.19827586 39.3074713,9.31034483 C38.841954,9.41954023 38.4712644,9.60344828 38.1954023,9.85632184 C37.9195402,10.1091954 37.7270115,10.4367816 37.6149425,10.8362069 C37.5057471,11.2327586 37.4482759,11.7097701 37.4482759,12.2614943 L37.4482759,15.4454023 L37.4511494,15.4454023 Z M49.887931,5.23275862 C51.3908046,5.23275862 52.6465517,5.3591954 53.6522989,5.61494253 C54.658046,5.87068966 55.4712644,6.26149425 56.0890805,6.79310345 C56.7068966,7.32471264 57.1436782,8.01436782 57.3994253,8.86494253 C57.6522989,9.71551724 57.7816092,10.7385057 57.7816092,11.9310345 L57.7816092,24 C57.7816092,25.2155172 57.6551724,26.25 57.3994253,27.1005747 C57.1436782,27.9511494 56.7097701,28.6465517 56.0890805,29.1896552 C55.4712644,29.7298851 54.658046,30.1293103 53.6522989,30.3821839 C52.6465517,30.6350575 51.3908046,30.7643678 49.887931,30.7643678 L34.2701149,30.7643678 C33.8706897,30.7643678 33.6724138,30.566092 33.6724138,30.1666667 L33.6724138,27.3821839 C33.6724138,26.9856322 33.8706897,26.7844828 34.2701149,26.7844828 L49.4224138,26.7844828 C50.1522989,26.7844828 50.75,26.7241379 51.2126437,26.6034483 C51.6781609,26.4827586 52.045977,26.2816092 52.3247126,26.0057471 C52.6005747,25.7298851 52.7931034,25.3534483 52.9051724,24.8793103 C53.0143678,24.4051724 53.0718391,23.8132184 53.0718391,23.1063218 L53.0718391,22.2442529 L40.6034483,22.2442529 C39.1005747,22.2442529 37.8448276,22.1178161 36.8390805,21.862069 C35.8333333,21.6063218 35.0258621,21.2097701 34.4195402,20.6695402 C33.8103448,20.1293103 33.3735632,19.4310345 33.1091954,18.5804598 C32.8448276,17.7298851 32.7126437,16.6954023 32.7126437,15.4798851 L32.7126437,11.9942529 C32.7126437,10.7787356 32.8448276,9.74425287 33.1091954,8.89367816 C33.3735632,8.04310345 33.8103448,7.34482759 34.4195402,6.8045977 C35.0287356,6.26436782 35.8333333,5.86494253 36.8390805,5.61206897 C37.8448276,5.35632184 39.1005747,5.22988506 40.6034483,5.22988506 L49.887931,5.22988506 L49.887931,5.23275862 Z" id="Shape">
                
                </path>
                <path d="M65.8678161,12.7586207 L79.295977,12.7586207 C79.6724138,12.7586207 79.8591954,12.5718391 79.8591954,12.1954023 L79.8591954,10.8017241 C79.8591954,10.1149425 79.7155172,9.62931034 79.4281609,9.34195402 C79.1408046,9.0545977 78.6091954,8.91091954 77.8362069,8.91091954 L69.5114943,8.91091954 C68.0747126,8.91091954 67.1091954,9.13793103 66.6091954,9.59195402 C66.112069,10.045977 65.862069,10.8017241 65.862069,11.862069 L65.862069,12.7586207 L65.8678161,12.7586207 Z M78.7672414,5.23275862 C79.8936782,5.23275862 80.8275862,5.32758621 81.5689655,5.51436782 C82.3103448,5.70114943 82.8965517,6.01149425 83.3275862,6.44252874 C83.7586207,6.87356322 84.0632184,7.43678161 84.2385057,8.13218391 C84.4137931,8.82758621 84.5028736,9.67528736 84.5028736,10.6695402 L84.5028736,13.8189655 C84.5028736,14.5258621 84.3477011,15.0172414 84.0373563,15.2931034 C83.7270115,15.5689655 83.2528736,15.7068966 82.612069,15.7068966 L65.8678161,15.7068966 L65.8678161,16.5028736 C65.8678161,17.5431034 66.1149425,18.2931034 66.6149425,18.7586207 C67.112069,19.2241379 68.0804598,19.454023 69.5172414,19.454023 L83.3448276,19.454023 C83.7413793,19.454023 83.9425287,19.6522989 83.9425287,20.0517241 L83.9425287,22.8362069 C83.9425287,23.2356322 83.7442529,23.433908 83.3448276,23.433908 L69.0517241,23.433908 C67.5488506,23.433908 66.2931034,23.3132184 65.2873563,23.0689655 C64.2816092,22.8247126 63.4741379,22.433908 62.8678161,21.8908046 C62.2586207,21.3477011 61.8247126,20.6522989 61.5574713,19.8017241 C61.2931034,18.9511494 61.158046,17.9281609 61.158046,16.7356322 L61.158046,11.9626437 C61.158046,10.7701149 61.2902299,9.74712644 61.5574713,8.89655172 C61.8218391,8.04597701 62.2586207,7.34770115 62.8678161,6.80747126 C63.4770115,6.26724138 64.2816092,5.86781609 65.2873563,5.61494253 C66.2931034,5.3591954 67.5488506,5.23275862 69.0517241,5.23275862 L78.7672414,5.23275862 Z" id="Shape"></path>
                <path d="M105.362069,5.23275862 C106.841954,5.23275862 108.091954,5.3591954 109.109195,5.61494253 C110.126437,5.87068966 110.936782,6.26724138 111.545977,6.80747126 C112.152299,7.35057471 112.58908,8.04597701 112.856322,8.89655172 C113.12069,9.74712644 113.255747,10.7701149 113.255747,11.9626437 L113.255747,22.7068966 C113.255747,23.1925287 113.011494,23.4367816 112.525862,23.4367816 L109.275862,23.4367816 C108.79023,23.4367816 108.545977,23.1925287 108.545977,22.7068966 L108.545977,13.0890805 C108.545977,12.4022989 108.502874,11.8218391 108.413793,11.3477011 C108.324713,10.8735632 108.152299,10.4971264 107.899425,10.2212644 C107.646552,9.9454023 107.295977,9.74712644 106.856322,9.62356322 C106.413793,9.50287356 105.83908,9.44252874 105.132184,9.44252874 L96.3103448,9.44252874 C95.6034483,9.44252874 95.0172414,9.50287356 94.5545977,9.62356322 C94.0890805,9.74425287 93.7212644,9.9454023 93.4425287,10.2212644 C93.1666667,10.4971264 92.9741379,10.8735632 92.862069,11.3477011 C92.7528736,11.8218391 92.6954023,12.4022989 92.6954023,13.0890805 L92.6954023,22.704023 C92.6954023,23.1896552 92.4511494,23.433908 91.9655172,23.433908 L88.7155172,23.433908 C88.2068966,23.433908 87.954023,23.1896552 87.954023,22.704023 L87.954023,11.9626437 C87.954023,10.7701149 88.0862069,9.74712644 88.3505747,8.89655172 C88.6149425,8.04597701 89.0517241,7.34770115 89.6609195,6.80747126 C90.2701149,6.26724138 91.0747126,5.86781609 92.0804598,5.61494253 C93.0862069,5.3591954 94.341954,5.23275862 95.8448276,5.23275862 L105.362069,5.23275862 Z" id="Shape"></path>
                <path d="M121.376437,5.23275862 C121.862069,5.23275862 122.106322,5.48563218 122.106322,5.99425287 L122.106322,22.7068966 C122.106322,23.1925287 121.862069,23.4367816 121.376437,23.4367816 L118.126437,23.4367816 C117.640805,23.4367816 117.396552,23.1925287 117.396552,22.7068966 L117.396552,5.99425287 C117.396552,5.48563218 117.640805,5.23275862 118.126437,5.23275862 L121.376437,5.23275862 Z" id="Shape">
                </path>
                
                <path d="M149.497126,6.12643678 C149.675287,5.94827586 149.735632,5.75574713 149.681034,5.54597701 C149.626437,5.3362069 149.442529,5.22988506 149.135057,5.22988506 L145.387931,5.22988506 C145.143678,5.22988506 144.956897,5.26149425 144.824713,5.33045977 C144.692529,5.39655172 144.568966,5.49712644 144.45977,5.62931034 L139.675287,9.89367816 L142.554598,12.5028736 L149.497126,6.12643678 Z" id="Shape">
                </path>
                
                <path d="M149.761494,22.5747126 L140.643678,14.2528736 L140.652299,14.2442529 L137.761494,11.5977011 L137.758621,11.6005747 L131.227011,5.63218391 C131.094828,5.5 130.962644,5.39942529 130.827586,5.33333333 C130.695402,5.26724138 130.505747,5.23275862 130.264368,5.23275862 L126.054598,5.23275862 C125.744253,5.23275862 125.568966,5.33908046 125.522989,5.54885057 C125.479885,5.75862069 125.545977,5.95114943 125.721264,6.12931034 L134.275862,13.9885057 L124.925287,22.5775862 C124.747126,22.7528736 124.686782,22.9425287 124.744253,23.1408046 C124.798851,23.3390805 124.982759,23.4396552 125.29023,23.4396552 L129.037356,23.4396552 C129.281609,23.4396552 129.468391,23.4051724 129.600575,23.3390805 C129.732759,23.2729885 129.853448,23.183908 129.965517,23.0747126 L137.195402,16.6408046 L144.224138,23.0747126 C144.333333,23.1867816 144.462644,23.2729885 144.606322,23.3390805 C144.75,23.4051724 144.942529,23.4396552 145.186782,23.4396552 L149.396552,23.4396552 C149.706897,23.4396552 149.882184,23.3390805 149.928161,23.1408046 C149.971264,22.9396552 149.916667,22.75 149.761494,22.5747126 Z" id="Shape">
                </path>
            </g>
            <path d="M20.1350575,19.6005747 L11.4166667,19.6005747 L14.8074713,13.2758621 C14.9885057,12.9597701 15.2356322,12.8017241 15.5517241,12.8017241 L15.9568966,12.8017241 C16.2729885,12.8017241 16.5201149,12.9597701 16.7011494,13.2758621 L20.1350575,19.6005747 Z" id="Shape" fill="#00A49E">
            <animate attributeName="fill" values="#149F93;black;#149F93" dur="5s" repeatCount="indefinite" />
            </path>
        </g>
    </g>
</svg>